<svg width="720" height="1024" viewBox="0 0 720 1024" fill="none" xmlns="http://www.w3.org/2000/svg">
<g clip-path="url(#clip0_42_7423)">
<path d="M259.404 176.616H521.619C528.232 176.616 533.603 181.987 533.603 188.6V499.002C533.603 505.615 528.232 510.986 521.619 510.986H259.404C252.79 510.986 247.42 505.615 247.42 499.002V188.603C247.42 181.989 252.79 176.619 259.404 176.619V176.616Z" fill="white"/>
<path d="M521.618 511.604H259.403C252.456 511.604 246.801 505.952 246.801 499.002V188.603C246.801 181.655 252.453 176 259.403 176H521.618C528.566 176 534.221 181.652 534.221 188.603V499.004C534.221 505.952 528.569 511.607 521.618 511.607V511.604ZM259.403 177.235C253.136 177.235 248.035 182.335 248.035 188.603V499.004C248.035 505.272 253.136 510.372 259.403 510.372H521.618C527.886 510.372 532.986 505.272 532.986 499.004V188.603C532.986 182.335 527.886 177.235 521.618 177.235H259.403Z" fill="black"/>
<path d="M533.603 296.453C533.263 296.453 532.987 296.177 532.987 295.837V258.127C532.987 257.787 533.263 257.511 533.603 257.511C533.943 257.511 534.218 257.787 534.218 258.127V295.837C534.218 296.177 533.943 296.453 533.603 296.453Z" fill="black"/>
<path d="M410.195 193.174H263.319V494.429H410.195V193.174Z" fill="white"/>
<path d="M410.195 495.047H263.319C262.979 495.047 262.703 494.771 262.703 494.431V193.174C262.703 192.834 262.979 192.558 263.319 192.558H410.195C410.535 192.558 410.811 192.834 410.811 193.174V494.428C410.811 494.768 410.535 495.044 410.195 495.044V495.047ZM263.935 493.812H409.576V193.792H263.935V493.812Z" fill="black"/>
<path d="M517.702 193.174H425.336V494.429H517.702V193.174Z" fill="white"/>
<path d="M517.702 495.047H425.336C424.996 495.047 424.72 494.771 424.72 494.431V193.174C424.72 192.834 424.996 192.558 425.336 192.558H517.702C518.042 192.558 518.318 192.834 518.318 193.174V494.428C518.318 494.768 518.042 495.044 517.702 495.044V495.047ZM425.952 493.812H517.083V193.792H425.952V493.812Z" fill="black"/>
<path d="M552.907 514.689H220.542V527.824H552.907V514.689Z" fill="white"/>
<path d="M552.91 528.443H220.541C220.201 528.443 219.926 528.167 219.926 527.827V514.692C219.926 514.352 220.201 514.076 220.541 514.076H552.907C553.247 514.076 553.523 514.352 553.523 514.692V527.827C553.523 528.167 553.247 528.443 552.907 528.443H552.91ZM221.16 527.208H552.291V515.308H221.16V527.208Z" fill="black"/>
<path d="M515.506 481.426C514.59 481.12 513.6 480.953 512.555 480.953H510.141V474.136H468.223V498.577C468.223 508.237 476.051 516.068 485.708 516.068H492.656C501.847 516.068 509.375 508.973 510.083 499.96H512.558C517.747 499.96 521.596 495.492 521.596 490.303V490.23C521.596 486.086 519.143 482.644 515.512 481.426H515.506ZM512.204 494.531H510.139V486.384H512.204C514.428 486.384 516.228 488.235 516.228 490.459C516.228 492.683 514.425 494.534 512.204 494.534V494.531Z" fill="white"/>
<path d="M492.653 516.687H485.705C475.722 516.687 467.601 508.563 467.601 498.578V474.136C467.601 473.796 467.877 473.52 468.217 473.52H510.136C510.476 473.52 510.752 473.796 510.752 474.136V480.334H512.549C513.639 480.334 514.698 480.504 515.699 480.839C519.651 482.165 522.203 485.85 522.203 490.228V490.3C522.203 495.966 517.872 500.576 512.549 500.576H510.637C509.634 509.653 501.842 516.685 492.648 516.685L492.653 516.687ZM468.839 474.755V498.578C468.839 507.883 476.405 515.453 485.708 515.453H492.656C501.401 515.453 508.784 508.627 509.467 499.915C509.492 499.595 509.76 499.347 510.083 499.347H512.558C517.279 499.347 520.977 495.375 520.977 490.306V490.233C520.977 486.396 518.753 483.169 515.314 482.015C514.442 481.722 513.514 481.574 512.558 481.574H510.144C509.804 481.574 509.528 481.298 509.528 480.958V474.76H468.844L468.839 474.755ZM512.204 495.15H510.139C509.799 495.15 509.523 494.874 509.523 494.534V486.387C509.523 486.047 509.799 485.772 510.139 485.772H512.204C514.765 485.772 516.847 487.876 516.847 490.462C516.847 493.048 514.765 495.152 512.204 495.152V495.15ZM510.757 493.915H512.204C514.082 493.915 515.612 492.365 515.612 490.459C515.612 488.553 514.082 487.003 512.204 487.003H510.757V493.915Z" fill="black"/>
<path d="M492.653 516.687H485.705C475.722 516.687 467.601 508.563 467.601 498.578V474.136C467.601 473.796 467.877 473.52 468.217 473.52C468.557 473.52 468.833 473.796 468.833 474.136V498.578C468.833 507.883 476.4 515.453 485.702 515.453H492.65C501.396 515.453 508.779 508.627 509.461 499.915C509.486 499.595 509.754 499.347 510.077 499.347H512.552C517.273 499.347 520.972 495.375 520.972 490.306V490.233C520.972 488.461 520.492 486.775 519.584 485.356C519.4 485.069 519.483 484.687 519.77 484.503C520.057 484.32 520.439 484.403 520.623 484.69C521.66 486.307 522.206 488.224 522.206 490.233V490.306C522.206 495.972 517.875 500.581 512.552 500.581H510.64C509.637 509.659 501.845 516.69 492.65 516.69L492.653 516.687ZM512.031 495.15H510.704C510.052 495.15 509.523 494.62 509.523 493.968V486.95C509.523 486.298 510.052 485.769 510.704 485.769H512.204C513.505 485.769 514.759 486.332 515.64 487.316C516.535 488.313 516.964 489.648 516.816 490.978C516.557 493.355 514.497 495.15 512.028 495.15H512.031ZM510.757 493.915H512.031C513.84 493.915 515.403 492.566 515.59 490.844C515.699 489.86 515.381 488.876 514.72 488.14C514.071 487.419 513.154 487.003 512.201 487.003H510.755V493.915H510.757ZM515.506 482.045C515.442 482.045 515.375 482.034 515.311 482.012C514.439 481.719 513.511 481.572 512.555 481.572H510.707C510.055 481.572 509.525 481.042 509.525 480.39V474.757H475.502C475.162 474.757 474.886 474.482 474.886 474.142C474.886 473.801 475.162 473.526 475.502 473.526H509.576C510.228 473.526 510.757 474.055 510.757 474.707V480.34H512.555C513.645 480.34 514.704 480.51 515.704 480.844C516.027 480.953 516.2 481.301 516.094 481.625C516.008 481.884 515.768 482.045 515.509 482.045H515.506Z" fill="black"/>
<path d="M489.229 501.355C493.534 501.343 497.015 497.842 497.003 493.536C496.991 489.229 493.491 485.747 489.186 485.759C484.881 485.772 481.4 489.272 481.412 493.579C481.424 497.886 484.924 501.367 489.229 501.355Z" fill="white"/>
<path d="M489.18 502.003C484.54 502.003 480.767 498.226 480.767 493.586C480.767 488.946 484.54 485.169 489.18 485.169C493.821 485.169 497.594 488.946 497.594 493.586C497.594 498.226 493.821 502.003 489.18 502.003ZM489.18 486.407C485.223 486.407 482.001 489.629 482.001 493.589C482.001 497.549 485.22 500.771 489.18 500.771C493.141 500.771 496.36 497.549 496.36 493.589C496.36 489.629 493.141 486.407 489.18 486.407Z" fill="black"/>
<path d="M490.732 467.486C490.618 467.486 490.504 467.455 490.401 467.389C490.303 467.327 488.015 465.828 487.449 463.072C487.07 461.218 487.558 459.273 488.904 457.286C492.555 451.893 491.362 449.513 490.097 446.993L489.994 446.787C489.84 446.483 489.966 446.113 490.27 445.96C490.576 445.806 490.944 445.932 491.097 446.235L491.2 446.439C492.505 449.039 493.985 451.988 489.927 457.98C488.778 459.674 488.352 461.302 488.656 462.812C489.11 465.056 491.05 466.341 491.069 466.352C491.354 466.539 491.437 466.92 491.251 467.205C491.133 467.389 490.933 467.486 490.732 467.486Z" fill="black"/>
<path d="M560.658 264.327H536.272C533.594 247.215 518.789 234.125 500.925 234.125C496.329 234.125 491.942 235 487.907 236.578C478.813 220.16 461.319 209.04 441.222 209.04C411.764 209.04 387.885 232.918 387.885 262.377C387.885 263.032 387.91 263.678 387.935 264.327H385.458C364.898 264.327 348.232 280.994 348.232 301.553C348.232 322.113 364.898 338.779 385.458 338.779H560.658C581.217 338.779 597.883 322.113 597.883 301.553C597.883 280.994 581.217 264.327 560.658 264.327Z" fill="white"/>
<path d="M564.643 334.897H389.443C368.577 334.897 351.602 317.921 351.602 297.055C351.602 276.189 368.577 259.214 389.443 259.214H391.28C391.266 258.77 391.252 258.327 391.252 257.879C391.252 228.128 415.457 203.923 445.208 203.923C464.641 203.923 482.586 214.402 492.171 231.31C496.257 229.78 500.54 229.006 504.91 229.006C513.639 229.006 522.081 232.144 528.68 237.84C535.076 243.361 539.36 250.933 540.781 259.208H564.643C585.509 259.208 602.485 276.183 602.485 297.049C602.485 317.916 585.509 334.891 564.643 334.891V334.897ZM389.443 260.445C369.257 260.445 352.833 276.869 352.833 297.055C352.833 317.241 369.257 333.665 389.443 333.665H564.643C584.829 333.665 601.253 317.241 601.253 297.055C601.253 276.869 584.829 260.445 564.643 260.445H540.257C539.953 260.445 539.694 260.225 539.647 259.924C536.955 242.726 522.345 230.243 504.91 230.243C500.512 230.243 496.209 231.054 492.118 232.654C491.828 232.765 491.502 232.648 491.354 232.378C482.054 215.586 464.374 205.157 445.21 205.157C416.139 205.157 392.489 228.808 392.489 257.879C392.489 258.475 392.512 259.069 392.534 259.659L392.539 259.807C392.545 259.974 392.484 260.136 392.367 260.259C392.25 260.379 392.091 260.448 391.923 260.448H389.446L389.443 260.445Z" fill="black"/>
<path d="M438.558 641.503C438.558 641.503 452.85 670.351 468.908 684.216C471.617 686.554 475.834 685.264 476.845 681.833C477.428 679.849 478.002 677.204 478.473 673.681C480.24 660.51 468.392 626.213 468.392 626.213L463.117 624.513C461.266 623.917 459.304 625.049 458.894 626.952L458.343 629.522L452 623.937C450.556 622.666 448.337 622.855 447.145 624.366C444.72 627.437 440.958 633.17 438.555 641.503H438.558Z" fill="white"/>
<path d="M472.085 686.016C470.787 686.016 469.519 685.556 468.507 684.681C452.538 670.894 438.151 642.066 438.006 641.776C437.937 641.637 437.923 641.48 437.967 641.33C440.342 633.089 444.007 627.348 446.665 623.981C447.345 623.12 448.324 622.59 449.419 622.49C450.517 622.39 451.584 622.738 452.412 623.468L457.967 628.357L458.298 626.815C458.53 625.74 459.21 624.806 460.163 624.254C461.116 623.702 462.267 623.583 463.312 623.92L468.588 625.62C468.772 625.678 468.919 625.823 468.981 626.004C469.466 627.409 480.856 660.591 479.089 673.756C478.654 676.984 478.102 679.757 477.442 682C476.904 683.831 475.488 685.244 473.657 685.785C473.139 685.938 472.612 686.011 472.088 686.011L472.085 686.016ZM439.219 641.441C440.565 644.103 454.254 670.746 469.312 683.748C470.427 684.712 471.885 685.024 473.306 684.606C474.733 684.185 475.834 683.084 476.255 681.657C476.898 679.472 477.439 676.761 477.863 673.597C479.507 661.357 469.05 630.062 467.911 626.704L462.93 625.099C462.214 624.867 461.428 624.951 460.776 625.327C460.124 625.703 459.658 626.342 459.502 627.077L458.95 629.647C458.906 629.862 458.75 630.034 458.541 630.104C458.332 630.171 458.103 630.126 457.939 629.981L451.596 624.396C451.021 623.892 450.286 623.652 449.528 623.719C448.775 623.786 448.101 624.151 447.632 624.745C445.068 627.994 441.537 633.518 439.219 641.441Z" fill="black"/>
<path d="M473.376 681.37C473.217 681.37 473.058 681.309 472.938 681.189C456.609 664.791 442.939 639.123 442.803 638.866C442.644 638.565 442.758 638.192 443.059 638.033C443.36 637.874 443.733 637.988 443.892 638.289C444.029 638.546 457.615 664.052 473.81 680.32C474.05 680.562 474.05 680.952 473.81 681.192C473.691 681.312 473.532 681.373 473.376 681.373V681.37Z" fill="black"/>
<path d="M466.414 658.846C466.155 658.846 465.912 658.682 465.828 658.423C465.723 658.099 465.898 657.751 466.221 657.642L474.761 654.83C475.084 654.722 475.432 654.9 475.541 655.223C475.647 655.547 475.471 655.895 475.148 656.004L466.609 658.816C466.545 658.838 466.481 658.846 466.416 658.846H466.414Z" fill="black"/>
<path d="M460.798 649.724C460.539 649.724 460.297 649.56 460.213 649.301C460.107 648.977 460.283 648.629 460.606 648.52L471.336 644.986C471.659 644.881 472.008 645.056 472.116 645.379C472.222 645.703 472.047 646.051 471.723 646.16L460.994 649.694C460.929 649.716 460.865 649.724 460.801 649.724H460.798Z" fill="black"/>
<path d="M321.851 424.879C322.949 423.723 401.252 389.894 433.257 382.701C465.263 375.505 477.188 375.438 488.08 393.729C498.971 412.02 435.618 511.827 435.618 511.827L300.843 476.697L321.854 424.879H321.851Z" fill="black"/>
<path d="M397.698 463.426C397.615 463.426 397.528 463.409 397.447 463.373C397.135 463.234 396.996 462.868 397.135 462.556C412.191 428.951 437.048 404.941 437.296 404.702C437.541 404.465 437.931 404.473 438.168 404.721C438.405 404.966 438.396 405.359 438.148 405.593C437.9 405.83 413.213 429.684 398.261 463.061C398.158 463.289 397.932 463.426 397.698 463.426Z" fill="white"/>
<path d="M257.787 469.585C257.787 469.585 261.335 505.964 269.202 513.527C277.07 521.094 371.473 513.527 371.473 513.527C371.473 513.527 378.976 525.818 383.878 558.668C388.78 591.518 394.248 635.742 402.369 646.53L473.058 631.269C473.058 631.269 449.611 490.552 433.327 471.413C417.043 452.275 298.56 449.271 298.56 449.271L257.787 469.582V469.585Z" fill="black"/>
<path d="M441.504 489.295C441.248 489.295 441.011 489.136 440.922 488.879C437.959 480.362 435.245 474.621 432.859 471.815C427.343 465.332 402.907 459.427 362.195 454.733C361.858 454.694 361.613 454.388 361.652 454.051C361.691 453.71 362.003 453.471 362.335 453.507C403.95 458.303 427.996 464.195 433.798 471.015C436.284 473.938 439.074 479.81 442.087 488.472C442.198 488.796 442.028 489.147 441.708 489.258C441.641 489.281 441.571 489.292 441.504 489.292V489.295Z" fill="white"/>
<path d="M388.618 350.487C386.11 348.653 382.579 349.291 380.873 351.888C372.064 365.316 347.694 402.508 347.407 403.428L359.62 405.15L389.987 357.808C391.536 355.392 390.937 352.184 388.618 350.489V350.487Z" fill="white"/>
<path d="M359.62 405.766C359.592 405.766 359.561 405.766 359.533 405.761L347.321 404.038C347.143 404.013 346.981 403.91 346.886 403.757C346.789 403.604 346.763 403.417 346.819 403.244C347.101 402.35 365.213 374.639 380.358 351.551C381.275 350.152 382.685 349.219 384.332 348.92C385.979 348.622 387.632 349.001 388.983 349.991C391.561 351.875 392.23 355.453 390.505 358.14L360.138 405.482C360.024 405.66 359.826 405.766 359.62 405.766ZM348.394 402.943L359.313 404.482L389.465 357.471C390.837 355.333 390.304 352.482 388.253 350.983C387.177 350.197 385.862 349.893 384.549 350.13C383.239 350.367 382.119 351.111 381.386 352.223C362.761 380.614 350.743 399.089 348.391 402.938L348.394 402.943Z" fill="black"/>
<path d="M222.604 462.584C222.604 462.584 209.921 444.856 215.113 405.148C220.308 365.439 233.014 344.826 246.31 340.116C259.604 335.406 314.29 344.007 318.56 410.724L222.604 462.584Z" fill="white"/>
<path d="M222.604 463.203C222.412 463.203 222.222 463.111 222.102 462.944C221.974 462.765 209.335 444.561 214.502 405.067C219.24 368.856 230.759 344.971 246.104 339.534C253.211 337.017 271.29 338.285 287.527 348.998C300.72 357.705 316.921 375.472 319.175 410.685C319.192 410.925 319.064 411.153 318.852 411.268L222.897 463.128C222.805 463.178 222.702 463.203 222.604 463.203ZM254.272 339.648C251.059 339.648 248.389 340.036 246.516 340.699C239.716 343.107 233.392 349.709 228.223 359.79C222.384 371.18 218.178 386.467 215.726 405.228C211.069 440.826 220.949 458.769 222.81 461.773L317.918 410.373C315.602 375.929 299.759 358.552 286.847 350.032C275.292 342.407 262.845 339.651 254.272 339.651V339.648Z" fill="black"/>
<path d="M260.816 434.522C260.496 434.522 260.226 434.274 260.201 433.948L257.567 396.709C257.542 396.369 257.798 396.073 258.138 396.048C258.478 396.023 258.774 396.279 258.796 396.619L261.43 433.859C261.455 434.199 261.198 434.494 260.858 434.519C260.844 434.519 260.828 434.519 260.814 434.519L260.816 434.522Z" fill="black"/>
<path d="M217.986 452.373C217.986 452.373 222.593 485.722 269.202 474.56C315.809 463.398 340.108 420.072 340.108 420.072C340.108 420.072 367.245 414.272 366.323 396.664C366.323 396.664 357.24 399.1 349.514 396.664C341.789 394.228 333.431 396.72 330.215 399.735C308.178 420.404 237.785 426.602 217.986 452.373Z" fill="white"/>
<path d="M251.594 477.469C242.921 477.469 235.633 475.477 229.811 471.5C219.109 464.189 217.442 452.93 217.375 452.453C217.353 452.289 217.398 452.124 217.498 451.993C228.392 437.813 254.191 429.575 279.14 421.607C300.076 414.921 319.852 408.606 329.794 399.281C333.433 395.867 342.079 393.671 349.701 396.073C357.167 398.425 366.074 396.09 366.164 396.065C366.345 396.017 366.534 396.053 366.687 396.162C366.838 396.271 366.93 396.444 366.941 396.63C367.838 413.809 343.531 419.921 340.509 420.612C339.531 422.287 333.425 432.412 322.578 443.557C311.664 454.772 293.568 469.356 269.35 475.156C262.912 476.697 256.987 477.466 251.597 477.466L251.594 477.469ZM218.641 452.534C218.95 454.223 221.13 464.086 230.524 470.493C239.666 476.725 252.631 477.89 269.057 473.958C314.872 462.985 339.325 420.2 339.567 419.768C339.654 419.614 339.804 419.503 339.977 419.467C340.239 419.411 365.81 413.742 365.726 397.441C363.36 397.974 355.927 399.331 349.327 397.252C341.725 394.855 333.587 397.416 330.635 400.184C320.491 409.698 300.586 416.056 279.514 422.783C254.871 430.654 229.396 438.789 218.638 452.534H218.641Z" fill="black"/>
<path d="M349.726 404.808C348.974 404.808 348.196 404.791 347.382 404.76C347.042 404.746 346.778 404.459 346.792 404.119C346.805 403.779 347.07 403.515 347.433 403.528C361.033 404.078 365.673 399.574 365.718 399.529C365.958 399.289 366.348 399.287 366.59 399.524C366.833 399.763 366.838 400.151 366.601 400.393C366.415 400.583 362.142 404.81 349.726 404.81V404.808Z" fill="black"/>
<path d="M348.313 411.26C348.012 411.26 347.708 411.26 347.396 411.251C347.056 411.246 346.783 410.964 346.791 410.621C346.797 410.281 347.087 410.011 347.421 410.017C359.277 410.234 363.103 406.031 363.14 405.989C363.365 405.733 363.753 405.705 364.012 405.931C364.268 406.154 364.296 406.544 364.07 406.803C363.909 406.99 360.038 411.262 348.316 411.262L348.313 411.26Z" fill="black"/>
<path d="M267.505 309.214C267.154 309.855 252.246 335.336 252.246 335.336L241.965 342.245C245.758 345.127 252.458 349.463 261.828 351.949C271.387 354.483 279.503 353.967 284.252 353.309C283.84 352.011 283.146 350.319 281.942 348.552C280.044 345.765 277.781 344.107 276.334 343.22C279.403 337.95 282.471 332.683 285.54 327.413L267.505 309.214Z" fill="white"/>
<path d="M276.384 354.472C271.432 354.472 266.51 353.828 261.669 352.546C254.364 350.609 247.609 347.309 241.589 342.739C241.43 342.619 241.341 342.429 241.346 342.229C241.352 342.031 241.455 341.844 241.62 341.735L251.784 334.905C252.904 332.99 266.633 309.521 266.964 308.919C267.059 308.749 267.226 308.632 267.419 308.604C267.611 308.576 267.806 308.643 267.942 308.779L285.977 326.978C286.175 327.176 286.211 327.483 286.072 327.723L277.167 343.015C279.272 344.397 281.05 346.142 282.451 348.201C283.48 349.712 284.283 351.364 284.84 353.117C284.896 353.29 284.871 353.48 284.773 353.633C284.675 353.786 284.517 353.889 284.335 353.914C281.682 354.282 279.029 354.466 276.381 354.466L276.384 354.472ZM243.03 342.273C248.743 346.479 255.117 349.533 261.987 351.353C269.013 353.215 276.22 353.7 283.427 352.794C282.925 351.415 282.256 350.107 281.434 348.898C280.018 346.816 278.193 345.083 276.014 343.745C275.727 343.569 275.635 343.199 275.805 342.909L284.77 327.511L267.639 310.223C265.242 314.348 253.336 334.701 252.781 335.649C252.734 335.729 252.67 335.796 252.592 335.849L243.033 342.273H243.03Z" fill="black"/>
<path d="M312.648 292.936C305.775 287.292 297.673 293.184 289.65 286.264C285.974 283.092 285.636 280.099 281.222 278.363C278.298 277.215 273.098 276.423 269.636 279.065C265.227 282.429 268.471 287.671 264.896 299.43C262.385 307.687 258.904 311.28 260.857 314.175C262.833 317.105 267.426 314.967 269.826 318.005C272.931 321.934 267.267 328.085 269.032 333.637C270.244 337.452 276.044 342.901 290.622 344.723C291.428 342.385 293.362 337.756 294.622 333.23C298.565 319.064 296.416 313.643 299.961 311.812C305.393 309.008 311.945 317.668 315.981 315.053C320.173 312.339 319.702 298.727 312.645 292.933L312.648 292.936Z" fill="black"/>
<path d="M284.165 299.87L285.539 304.03C285.539 304.03 280.202 317.121 279.246 322.065C278.293 327.009 293.381 331.123 293.381 331.123L295.75 329.367L299.964 330.42C299.964 330.42 299.836 316.012 303.696 306.405C303.696 306.405 296.573 297.763 284.162 299.87H284.165Z" fill="white"/>
<path d="M284.692 300.187C285.238 301.444 285.723 302.595 286.125 303.838C286.172 303.983 286.164 304.134 286.111 304.265C284.962 307.102 283.859 309.964 282.8 312.837C281.766 315.711 280.715 318.612 279.999 321.527L279.876 322.071C279.829 322.26 279.846 322.369 279.82 322.519C279.846 322.804 279.885 323.093 280.032 323.378C280.294 323.949 280.765 324.484 281.3 324.958C282.384 325.905 283.7 326.661 285.043 327.332C287.747 328.656 290.642 329.69 293.543 330.529L293.014 330.629L295.38 328.874L295.419 328.848C295.564 328.748 295.742 328.726 295.898 328.77L300.065 330.005L299.533 330.426C299.519 328.369 299.594 326.332 299.719 324.289C299.848 322.249 300.04 320.209 300.296 318.177C300.569 316.145 300.912 314.122 301.35 312.113C301.815 310.109 302.381 308.122 303.12 306.179L303.217 306.801C302.105 305.555 300.714 304.418 299.257 303.487C297.794 302.545 296.216 301.776 294.563 301.238C292.916 300.697 291.205 300.315 289.466 300.232C288.599 300.132 287.73 300.19 286.86 300.204C286.381 300.198 286.111 300.276 285.765 300.262C285.433 300.262 285.082 300.218 284.689 300.187H284.692ZM283.633 299.552C284.126 299.412 284.664 299.265 285.222 299.156C285.765 299.053 286.381 298.958 286.799 298.972C287.719 298.955 288.638 298.897 289.555 299C291.395 299.092 293.215 299.493 294.959 300.067C296.712 300.639 298.382 301.45 299.926 302.447C301.481 303.451 302.897 304.588 304.17 306.015C304.318 306.179 304.351 306.405 304.282 306.597L304.268 306.636C303.529 308.49 302.947 310.415 302.462 312.369C302.002 314.331 301.634 316.318 301.333 318.316C301.049 320.32 300.829 322.333 300.67 324.353C300.514 326.371 300.408 328.403 300.391 330.418C300.391 330.657 300.193 330.852 299.954 330.849C299.92 330.849 299.887 330.844 299.856 330.838L295.597 329.966L296.116 329.863L293.747 331.619L293.739 331.624C293.582 331.739 293.387 331.766 293.215 331.719C290.219 330.852 287.306 329.816 284.491 328.439C283.092 327.736 281.713 326.959 280.481 325.883C279.873 325.34 279.288 324.715 278.904 323.888C278.7 323.484 278.605 323.004 278.583 322.525C278.605 322.296 278.616 322.015 278.664 321.831L278.795 321.251C279.545 318.199 280.598 315.315 281.64 312.414C282.705 309.524 283.811 306.656 284.965 303.799L284.951 304.226C284.436 302.693 284.004 301.068 283.633 299.552Z" fill="black"/>
<path d="M279.066 311.43C279.066 311.43 280.387 301.862 275.905 302.183C271.424 302.503 270.236 313.071 279.066 311.43Z" fill="white"/>
<path d="M277.296 312.222C274.974 312.222 273.667 311.263 272.948 310.354C271.527 308.559 271.652 306.034 272.405 304.323C273.121 302.698 274.414 301.667 275.863 301.564C276.85 301.494 277.675 301.809 278.321 302.503C280.562 304.897 279.715 311.243 279.679 311.514C279.642 311.778 279.442 311.987 279.18 312.035C278.489 312.163 277.864 312.222 277.299 312.222H277.296ZM276.12 302.79C276.064 302.79 276.008 302.79 275.95 302.796C274.949 302.868 274.068 303.604 273.533 304.819C272.929 306.191 272.814 308.194 273.915 309.585C274.832 310.742 276.412 311.19 278.508 310.892C278.714 308.947 278.826 304.844 277.418 303.342C277.07 302.969 276.644 302.785 276.12 302.785V302.79Z" fill="black"/>
<path d="M312.534 581.859C309.538 575.694 309.254 569.485 312.534 563.208L310.179 560.385L245.783 562.503L248.002 582.96L310.335 583.679L312.531 581.859H312.534Z" fill="white"/>
<path d="M310.338 584.295H310.329L247.996 583.575C247.684 583.573 247.425 583.336 247.388 583.024L245.17 562.567C245.15 562.397 245.206 562.224 245.318 562.096C245.429 561.965 245.591 561.89 245.763 561.884L310.159 559.766C310.346 559.761 310.533 559.842 310.653 559.989L313.007 562.813C313.166 563.005 313.197 563.272 313.08 563.493C310.017 569.351 310.02 575.27 313.088 581.586C313.214 581.842 313.147 582.149 312.927 582.33L310.731 584.15C310.619 584.242 310.48 584.292 310.338 584.292V584.295ZM248.559 582.349L310.117 583.06L311.77 581.691C308.835 575.376 308.844 569.189 311.798 563.292L309.897 561.012L246.469 563.1L248.559 582.349Z" fill="black"/>
<path d="M194.207 558.133H313.727C315.123 558.133 316.257 559.265 316.257 560.664C316.257 562.063 315.126 563.194 313.727 563.194H258.779C254.754 563.194 251.494 566.455 251.494 570.48V574.576C251.494 578.601 254.754 581.862 258.779 581.862H313.727C315.123 581.862 316.257 582.993 316.257 584.392C316.257 585.791 315.126 586.923 313.727 586.923H194.207C186.788 586.923 180.774 580.908 180.774 573.49V571.572C180.774 564.153 186.788 558.139 194.207 558.139V558.133Z" fill="white"/>
<path d="M313.73 587.535H194.208C186.46 587.535 180.159 581.231 180.159 573.486V571.569C180.159 563.821 186.463 557.52 194.208 557.52H313.727C315.463 557.52 316.874 558.933 316.874 560.666C316.874 562.4 315.461 563.813 313.727 563.813H258.779C255.103 563.813 252.11 566.803 252.11 570.482V574.579C252.11 578.255 255.1 581.248 258.779 581.248H313.727C315.463 581.248 316.874 582.661 316.874 584.394C316.874 586.128 315.461 587.541 313.727 587.541L313.73 587.535ZM194.211 558.751C187.143 558.751 181.396 564.501 181.396 571.569V573.486C181.396 580.554 187.146 586.303 194.211 586.303H313.73C314.783 586.303 315.642 585.445 315.642 584.392C315.642 583.338 314.783 582.48 313.73 582.48H258.782C254.423 582.48 250.878 578.935 250.878 574.576V570.479C250.878 566.12 254.423 562.575 258.782 562.575H313.73C314.783 562.575 315.642 561.717 315.642 560.663C315.642 559.61 314.783 558.751 313.73 558.751H194.208H194.211Z" fill="black"/>
<path d="M310.176 572.283H273.909C273.569 572.283 273.293 572.007 273.293 571.667C273.293 571.327 273.569 571.051 273.909 571.051H310.176C310.516 571.051 310.792 571.327 310.792 571.667C310.792 572.007 310.516 572.283 310.176 572.283Z" fill="black"/>
<path d="M310.405 577.742H280.93C280.59 577.742 280.314 577.466 280.314 577.126C280.314 576.786 280.59 576.51 280.93 576.51H310.405C310.745 576.51 311.021 576.786 311.021 577.126C311.021 577.466 310.745 577.742 310.405 577.742Z" fill="black"/>
<path d="M317.166 616.662H209.207V590.214H317.163C313.975 599.149 313.888 607.967 317.163 616.662H317.166Z" fill="white"/>
<path d="M317.166 617.278H209.207C208.867 617.278 208.591 617.002 208.591 616.662V590.214C208.591 589.874 208.867 589.598 209.207 589.598H317.166C317.366 589.598 317.553 589.696 317.67 589.86C317.784 590.025 317.815 590.234 317.748 590.423C314.585 599.294 314.582 608.051 317.745 616.448C317.818 616.637 317.79 616.849 317.676 617.016C317.561 617.184 317.372 617.281 317.168 617.281L317.166 617.278ZM209.825 616.044H316.285C313.417 607.883 313.42 599.408 316.299 590.83H209.825V616.044Z" fill="black"/>
<path d="M222.205 591.518H317.91C319.061 591.518 319.995 590.585 319.995 589.434C319.995 588.283 319.061 587.349 317.91 587.349H193.717C188.659 587.349 184.559 591.449 184.559 596.507V610.905C184.559 615.963 188.659 620.063 193.717 620.063H317.907C319.058 620.063 319.992 619.129 319.992 617.978C319.992 616.827 319.058 615.893 317.907 615.893H222.205C218.633 615.893 215.737 612.998 215.737 609.425V597.987C215.737 594.414 218.633 591.518 222.205 591.518Z" fill="white"/>
<path d="M317.907 620.679H193.717C188.327 620.679 183.943 616.295 183.943 610.905V596.507C183.943 591.117 188.327 586.733 193.717 586.733H317.907C319.395 586.733 320.608 587.946 320.608 589.434C320.608 590.922 319.395 592.135 317.907 592.135H222.205C218.978 592.135 216.353 594.76 216.353 597.987V609.425C216.353 612.652 218.978 615.278 222.205 615.278H317.91C319.398 615.278 320.611 616.49 320.611 617.978C320.611 619.466 319.398 620.679 317.91 620.679H317.907ZM193.717 587.965C189.007 587.965 185.175 591.797 185.175 596.507V610.905C185.175 615.615 189.007 619.447 193.717 619.447H317.907C318.715 619.447 319.373 618.789 319.373 617.981C319.373 617.173 318.715 616.515 317.907 616.515H222.205C218.298 616.515 215.118 613.335 215.118 609.428V597.99C215.118 594.083 218.298 590.903 222.205 590.903H317.91C318.718 590.903 319.376 590.245 319.376 589.437C319.376 588.629 318.718 587.971 317.91 587.971H193.717V587.965Z" fill="black"/>
<path d="M315.257 597.109H299.315C298.975 597.109 298.699 596.833 298.699 596.493C298.699 596.153 298.975 595.877 299.315 595.877H315.257C315.597 595.877 315.873 596.153 315.873 596.493C315.873 596.833 315.597 597.109 315.257 597.109Z" fill="black"/>
<path d="M314.92 600.64H265.824C265.484 600.64 265.208 600.364 265.208 600.024C265.208 599.684 265.484 599.408 265.824 599.408H314.92C315.26 599.408 315.536 599.684 315.536 600.024C315.536 600.364 315.26 600.64 314.92 600.64Z" fill="black"/>
<path d="M314.92 608.009H272.678C272.338 608.009 272.062 607.733 272.062 607.393C272.062 607.053 272.338 606.777 272.678 606.777H314.92C315.26 606.777 315.536 607.053 315.536 607.393C315.536 607.733 315.26 608.009 314.92 608.009Z" fill="black"/>
<path d="M184.985 647.057C188.369 640.093 188.692 633.072 184.985 625.982L187.647 622.791L260.412 625.185L257.904 648.3L187.469 649.111L184.985 647.057Z" fill="white"/>
<path d="M187.466 649.73C187.321 649.73 187.182 649.68 187.073 649.588L184.59 647.534C184.369 647.353 184.303 647.043 184.428 646.79C187.909 639.627 187.909 632.916 184.436 626.272C184.322 626.052 184.35 625.781 184.509 625.592L187.17 622.401C187.293 622.256 187.477 622.175 187.664 622.178L260.429 624.572C260.602 624.577 260.763 624.655 260.875 624.784C260.986 624.915 261.042 625.085 261.022 625.255L258.514 648.37C258.481 648.679 258.219 648.916 257.906 648.922L187.471 649.733H187.463L187.466 649.73ZM185.749 646.89L187.686 648.495L257.349 647.693L259.726 625.784L187.926 623.424L185.721 626.068C189.079 632.74 189.091 639.741 185.749 646.893V646.89Z" fill="black"/>
<path d="M318.69 620.247H183.634C182.056 620.247 180.774 621.526 180.774 623.106C180.774 624.686 182.054 625.965 183.634 625.965H245.725C250.27 625.965 253.957 629.653 253.957 634.198V638.827C253.957 643.373 250.27 647.06 245.725 647.06H183.634C182.056 647.06 180.774 648.339 180.774 649.919C180.774 651.5 182.054 652.779 183.634 652.779H318.69C327.074 652.779 333.871 645.981 333.871 637.598V635.43C333.871 627.047 327.074 620.249 318.69 620.249V620.247Z" fill="white"/>
<path d="M318.691 653.392H183.634C181.717 653.392 180.159 651.834 180.159 649.917C180.159 647.999 181.717 646.441 183.634 646.441H245.725C249.925 646.441 253.339 643.024 253.339 638.827V634.198C253.339 629.998 249.922 626.584 245.725 626.584H183.634C181.717 626.584 180.159 625.026 180.159 623.109C180.159 621.191 181.717 619.633 183.634 619.633H318.691C327.4 619.633 334.487 626.721 334.487 635.43V637.598C334.487 646.307 327.4 653.395 318.691 653.395V653.392ZM183.634 647.676C182.399 647.676 181.393 648.682 181.393 649.917C181.393 651.151 182.399 652.157 183.634 652.157H318.691C326.72 652.157 333.253 645.625 333.253 637.595V635.427C333.253 627.398 326.72 620.865 318.691 620.865H183.634C182.399 620.865 181.393 621.871 181.393 623.106C181.393 624.34 182.399 625.347 183.634 625.347H245.725C250.605 625.347 254.574 629.315 254.574 634.195V638.824C254.574 643.704 250.605 647.673 245.725 647.673H183.634V647.676Z" fill="black"/>
<path d="M220.957 636.155H187.647C187.307 636.155 187.031 635.879 187.031 635.539C187.031 635.199 187.307 634.923 187.647 634.923H220.957C221.297 634.923 221.573 635.199 221.573 635.539C221.573 635.879 221.297 636.155 220.957 636.155Z" fill="black"/>
<path d="M228.106 642.328H187.391C187.051 642.328 186.775 642.052 186.775 641.712C186.775 641.372 187.051 641.096 187.391 641.096H228.106C228.446 641.096 228.722 641.372 228.722 641.712C228.722 642.052 228.446 642.328 228.106 642.328Z" fill="black"/>
<path d="M526.069 524.594C532.404 528.657 574.069 553.16 623.986 529.46C624.168 529.373 624.313 529.234 624.399 529.053C626.325 525.076 647.57 478.324 617.002 411.546C616.765 411.025 616.105 410.855 615.659 411.203C610.057 415.587 578.45 439.404 553.379 438.791C552.788 438.777 552.347 439.318 552.503 439.892C554.309 446.503 561.291 480.863 525.871 523.284C525.531 523.691 525.62 524.304 526.069 524.594Z" fill="white"/>
<path d="M579.877 540.295C572.818 540.295 565.706 539.546 558.557 538.041C541.069 534.362 529.012 527.213 525.735 525.112C525.375 524.881 525.13 524.504 525.066 524.081C524.999 523.654 525.122 523.22 525.398 522.888C560.644 480.674 553.666 446.48 551.907 440.054C551.782 439.594 551.877 439.12 552.169 438.746C552.465 438.37 552.916 438.161 553.393 438.172C578.169 438.788 609.285 415.408 615.277 410.715C615.637 410.434 616.097 410.336 616.543 410.445C616.997 410.556 617.368 410.863 617.563 411.286C630.397 439.323 635.756 467.118 633.499 493.901C631.774 514.374 626.077 526.999 624.954 529.32C624.806 529.627 624.564 529.866 624.251 530.017C609.834 536.862 594.98 540.295 579.88 540.295H579.877ZM553.354 439.407C553.237 439.407 553.17 439.471 553.139 439.507C553.106 439.552 553.069 439.624 553.097 439.727C554.884 446.257 561.985 480.994 526.342 523.679C526.273 523.76 526.276 523.849 526.281 523.894C526.287 523.939 526.312 524.019 526.398 524.072C529.631 526.146 541.523 533.197 558.808 536.831C580.97 541.494 602.809 538.827 623.716 528.899C623.772 528.871 623.814 528.832 623.839 528.782C624.945 526.494 630.558 514.053 632.267 493.795C634.508 467.226 629.182 439.638 616.44 411.799C616.389 411.688 616.292 411.652 616.253 411.643C616.208 411.632 616.122 411.624 616.041 411.688C610.069 416.364 579.339 439.415 554.34 439.418C554.011 439.418 553.691 439.415 553.365 439.407C553.365 439.407 553.359 439.407 553.357 439.407H553.354Z" fill="black"/>
<path d="M562.656 450.327C562.369 450.327 562.113 450.126 562.054 449.836C561.985 449.502 562.196 449.176 562.531 449.106C562.798 449.05 589.573 443.306 609.07 428.839C609.344 428.636 609.731 428.694 609.934 428.967C610.138 429.241 610.079 429.628 609.806 429.831C590.088 444.466 563.058 450.26 562.784 450.316C562.743 450.324 562.698 450.33 562.656 450.33V450.327Z" fill="black"/>
<path d="M581.917 457.288C581.635 457.288 581.382 457.093 581.315 456.809C581.24 456.477 581.449 456.146 581.78 456.071C594.528 453.175 605.732 448.454 615.079 442.038C615.361 441.846 615.745 441.916 615.937 442.197C616.13 442.479 616.057 442.863 615.779 443.055C606.303 449.56 594.954 454.343 582.053 457.275C582.006 457.286 581.961 457.291 581.917 457.291V457.288Z" fill="black"/>
<path d="M562.422 459.964C562.085 459.964 561.809 459.694 561.806 459.354C561.801 459.014 562.074 458.733 562.414 458.73C562.456 458.73 566.547 458.663 572.801 457.749C573.141 457.701 573.45 457.933 573.5 458.27C573.551 458.607 573.316 458.922 572.979 458.97C566.636 459.898 562.472 459.964 562.431 459.964H562.422Z" fill="black"/>
<path d="M568.35 470.671C564.236 470.671 561.84 470.401 561.759 470.39C561.422 470.348 561.179 470.042 561.221 469.704C561.263 469.367 561.567 469.125 561.907 469.166C562.166 469.197 588.277 472.129 617.526 458.052C617.833 457.904 618.203 458.032 618.351 458.342C618.499 458.648 618.371 459.019 618.064 459.167C597.282 469.169 578.052 470.674 568.35 470.674V470.671Z" fill="black"/>
<path d="M576.324 481.872C565.753 481.872 559.136 480.437 559.003 480.406C558.671 480.331 558.462 480.002 558.537 479.667C558.613 479.336 558.941 479.127 559.276 479.202C559.549 479.263 586.853 485.169 619.575 472.594C619.892 472.472 620.249 472.63 620.372 472.948C620.494 473.266 620.336 473.623 620.018 473.745C603.031 480.272 587.48 481.869 576.327 481.869L576.324 481.872Z" fill="black"/>
<path d="M600.564 494.754C600.261 494.754 599.999 494.531 599.954 494.222C599.907 493.884 600.141 493.572 600.478 493.525C607.058 492.6 613.326 490.975 619.109 488.703C619.427 488.578 619.783 488.734 619.909 489.052C620.034 489.37 619.878 489.726 619.56 489.852C613.688 492.159 607.326 493.809 600.651 494.748C600.623 494.751 600.592 494.754 600.564 494.754Z" fill="black"/>
<path d="M586.73 495.699C569.223 495.699 555.831 491.393 555.692 491.346C555.369 491.24 555.19 490.892 555.296 490.568C555.402 490.245 555.753 490.069 556.074 490.173C556.219 490.22 570.939 494.947 589.643 494.423C590 494.414 590.267 494.682 590.278 495.022C590.287 495.362 590.019 495.646 589.679 495.657C588.684 495.685 587.7 495.699 586.73 495.699Z" fill="black"/>
<path d="M173.007 271.85L197.549 295.564C199.812 297.749 203.433 297.663 205.57 295.355C212.978 287.367 230.575 270.15 252.625 260.465C255.808 259.069 256.99 255.164 255.095 252.249L233.262 218.691C231.623 216.171 228.295 215.377 225.706 216.902C217.448 221.771 198.79 234.685 172.703 264.071C170.705 266.323 170.842 269.757 173.004 271.847L173.007 271.85Z" fill="white"/>
<path d="M201.457 297.763C199.829 297.763 198.296 297.144 197.12 296.007L172.578 272.293C170.165 269.96 170.017 266.17 172.244 263.664C198.101 234.538 216.643 221.534 225.394 216.372C228.27 214.678 231.952 215.547 233.78 218.356L255.613 251.914C256.611 253.45 256.884 255.337 256.36 257.09C255.833 258.854 254.562 260.289 252.873 261.031C230.594 270.816 212.688 288.588 206.022 295.776C204.876 297.01 203.318 297.715 201.632 297.763C201.574 297.763 201.515 297.763 201.457 297.763ZM173.436 271.404L197.978 295.118C198.957 296.063 200.239 296.559 201.599 296.525C202.95 296.489 204.199 295.923 205.116 294.934C211.833 287.691 229.884 269.776 252.377 259.899C253.735 259.303 254.755 258.152 255.175 256.736C255.596 255.331 255.376 253.818 254.576 252.586L232.743 219.028C231.277 216.776 228.326 216.077 226.021 217.434C217.334 222.556 198.912 235.48 173.169 264.481C171.382 266.49 171.502 269.534 173.439 271.404H173.436Z" fill="black"/>
<path d="M156.553 302.786L181.095 326.5C183.358 328.685 186.978 328.599 189.116 326.291C196.524 318.303 214.121 301.086 236.171 291.401C239.354 290.005 240.535 286.1 238.64 283.185L216.807 249.627C215.168 247.108 211.841 246.313 209.252 247.838C200.994 252.707 182.335 265.621 156.249 295.007C154.251 297.259 154.387 300.693 156.55 302.783L156.553 302.786Z" fill="white"/>
<path d="M185.003 328.701C183.375 328.701 181.842 328.082 180.666 326.945L156.127 303.228C153.713 300.895 153.566 297.105 155.792 294.599C181.65 265.47 200.192 252.466 208.943 247.307C211.819 245.613 215.5 246.482 217.329 249.292L239.162 282.849C240.16 284.385 240.433 286.272 239.909 288.025C239.382 289.789 238.111 291.224 236.422 291.966C214.143 301.751 196.237 319.523 189.571 326.711C188.425 327.945 186.867 328.651 185.181 328.698C185.123 328.698 185.064 328.698 185.005 328.698L185.003 328.701ZM156.982 302.342L181.525 326.056C182.503 327.001 183.785 327.497 185.148 327.463C186.499 327.427 187.748 326.861 188.665 325.872C195.381 318.629 213.433 300.714 235.926 290.837C237.283 290.241 238.303 289.087 238.727 287.674C239.148 286.269 238.928 284.756 238.128 283.524L216.295 249.966C214.829 247.714 211.877 247.015 209.57 248.372C200.883 253.494 182.461 266.417 156.718 295.419C154.931 297.428 155.051 300.469 156.988 302.342H156.982Z" fill="black"/>
<path d="M161.731 300.698C161.43 300.698 161.168 300.478 161.121 300.174C161.071 299.837 161.302 299.522 161.639 299.472L191.817 294.915C197.145 294.11 201.504 290.459 203.196 285.386L213.223 255.295C213.332 254.972 213.68 254.797 214.004 254.905C214.327 255.014 214.502 255.362 214.394 255.686L204.366 285.777C202.527 291.292 197.789 295.263 192 296.136L161.823 300.692C161.793 300.698 161.762 300.701 161.731 300.701V300.698Z" fill="black"/>
<path d="M607.816 540.09L567.639 516.821C565.998 515.871 563.807 516.378 562.745 517.958L512.293 593.081C511.234 594.661 511.705 596.71 513.346 597.663L553.523 620.931C555.165 621.882 557.355 621.374 558.417 619.794L608.87 544.671C609.929 543.091 609.458 541.043 607.816 540.09Z" fill="white"/>
<path d="M555.321 622.021C554.596 622.021 553.866 621.84 553.214 621.464L513.037 598.195C512.095 597.649 511.443 596.779 511.206 595.748C510.966 594.714 511.17 593.644 511.78 592.736L562.233 517.613C563.47 515.773 566.031 515.177 567.949 516.286L608.126 539.555C609.068 540.101 609.72 540.97 609.957 542.001C610.196 543.035 609.993 544.106 609.382 545.014L558.93 620.137C558.116 621.349 556.723 622.021 555.321 622.021ZM565.83 516.958C564.833 516.958 563.841 517.437 563.258 518.301L512.806 593.424C512.388 594.045 512.248 594.773 512.41 595.47C512.571 596.166 513.015 596.754 513.658 597.125L553.835 620.393C555.201 621.185 557.026 620.758 557.907 619.446L608.36 544.323C608.778 543.702 608.917 542.974 608.755 542.277C608.594 541.581 608.151 540.993 607.51 540.622L567.333 517.353C566.867 517.083 566.349 516.955 565.833 516.955L565.83 516.958Z" fill="black"/>
<path d="M576.075 521.707L575 523.309C573.854 525.012 574.364 527.225 576.137 528.25L593.026 538.033C594.798 539.058 597.162 538.509 598.304 536.806L599.38 535.204L576.073 521.707H576.075Z" fill="black"/>
<path d="M585.551 531.695C584.907 531.322 584.724 530.519 585.139 529.898C585.554 529.279 586.415 529.078 587.059 529.452C587.703 529.825 587.887 530.628 587.471 531.249C587.056 531.868 586.195 532.069 585.551 531.695Z" fill="white"/>
<path d="M598.566 551.516L560.658 529.56L562.876 526.258L600.785 548.211L598.566 551.516Z" fill="black"/>
<path d="M582.184 576.524C582.078 576.524 581.973 576.496 581.875 576.44L543.967 554.487C543.819 554.401 543.713 554.258 543.674 554.091C543.635 553.924 543.668 553.748 543.763 553.609L558.523 531.631C558.704 531.361 559.064 531.277 559.345 531.442L597.253 553.395C597.401 553.481 597.507 553.623 597.546 553.79C597.585 553.958 597.552 554.133 597.457 554.272L582.697 576.25C582.58 576.426 582.385 576.524 582.184 576.524ZM545.157 553.748L581.995 575.083L596.066 554.13L559.228 532.796L545.157 553.748Z" fill="black"/>
<path d="M598.095 548.949C597.8 549.389 597.192 549.529 596.735 549.264C596.278 548.999 596.147 548.428 596.443 547.99C596.738 547.55 597.346 547.411 597.803 547.675C598.26 547.94 598.391 548.512 598.095 548.949Z" fill="white"/>
<path d="M571.965 591.737C571.859 591.737 571.753 591.71 571.655 591.654L533.747 569.701C533.599 569.615 533.493 569.472 533.454 569.305C533.415 569.138 533.449 568.962 533.544 568.823L542.746 555.122C542.927 554.852 543.287 554.768 543.568 554.933L581.477 576.886C581.624 576.972 581.73 577.114 581.769 577.281C581.808 577.449 581.775 577.624 581.68 577.764L572.478 591.464C572.361 591.64 572.165 591.737 571.965 591.737ZM534.937 568.962L571.775 590.297L580.287 577.621L543.449 556.287L534.937 568.962Z" fill="black"/>
<path d="M561.419 607.443C561.313 607.443 561.207 607.415 561.11 607.359L523.201 585.406C523.053 585.32 522.948 585.177 522.909 585.01C522.87 584.843 522.903 584.667 522.998 584.528L532.2 570.827C532.381 570.557 532.741 570.473 533.022 570.638L570.931 592.591C571.079 592.677 571.184 592.819 571.224 592.987C571.263 593.154 571.229 593.329 571.134 593.469L561.932 607.169C561.815 607.345 561.62 607.443 561.419 607.443ZM524.391 584.667L561.229 606.002L569.741 593.327L532.903 571.992L524.391 584.667Z" fill="black"/>
<path d="M553.988 618.507C553.883 618.507 553.777 618.479 553.679 618.423L515.771 596.47C515.623 596.384 515.517 596.242 515.478 596.074C515.439 595.907 515.473 595.732 515.567 595.592L521.654 586.529C521.835 586.259 522.195 586.175 522.476 586.34L560.385 608.292C560.532 608.379 560.638 608.521 560.677 608.688C560.716 608.855 560.683 609.031 560.588 609.17L554.501 618.234C554.384 618.409 554.189 618.507 553.988 618.507ZM516.961 595.732L553.799 617.066L559.197 609.028L522.359 587.694L516.961 595.732Z" fill="black"/>
<path d="M538.474 342.218C538.398 342.218 538.32 342.204 538.245 342.173C535.887 341.229 533.309 339.682 533.201 339.618C532.908 339.442 532.813 339.063 532.992 338.77C533.167 338.478 533.546 338.383 533.839 338.561C533.864 338.578 536.439 340.122 538.705 341.028C539.023 341.153 539.176 341.513 539.048 341.83C538.95 342.073 538.719 342.218 538.474 342.218Z" fill="black"/>
<path d="M562.051 378.145L571.438 383.513C572.215 383.959 573.207 383.683 573.65 382.899L602.649 331.806C603.145 330.934 602.844 329.824 601.977 329.328L578.19 315.725L562.054 378.145H562.051Z" fill="white"/>
<path d="M562.052 378.145L571.438 383.512C571.895 383.774 572.425 383.786 572.874 383.596C572.874 383.596 573.626 383.253 574.459 381.79C575.176 380.53 602.438 332.176 602.438 332.176C603.037 331.117 602.736 330.011 601.869 329.515L578.083 315.912L562.049 378.145H562.052Z" fill="white"/>
<path d="M572.232 384.342C571.85 384.342 571.474 384.242 571.131 384.047L561.745 378.679C561.449 378.509 561.346 378.133 561.516 377.838C561.686 377.542 562.063 377.439 562.358 377.609L571.745 382.977C572.018 383.133 572.338 383.152 572.631 383.027C572.631 383.027 573.233 382.695 573.924 381.483C574.632 380.24 601.629 332.357 601.902 331.872C602.315 331.147 602.175 330.398 601.565 330.049L577.778 316.446C577.483 316.276 577.38 315.9 577.55 315.604C577.72 315.309 578.096 315.206 578.391 315.376L602.178 328.979C603.377 329.665 603.719 331.17 602.975 332.482C602.702 332.964 575.705 380.85 574.997 382.096C574.088 383.687 573.224 384.114 573.13 384.158C572.837 384.284 572.533 384.345 572.235 384.345L572.232 384.342Z" fill="black"/>
<path d="M588.191 348.162L560.368 380.402C559.978 380.856 559.323 380.97 558.805 380.672L503.954 349.305C503.272 348.915 503.115 347.992 503.631 347.393L545.82 298.509C546.21 298.055 546.865 297.941 547.384 298.239L602.234 329.606C602.917 329.997 603.073 330.919 602.557 331.518L591 344.929L588.193 348.162H588.191Z" fill="white"/>
<path d="M559.418 381.453C559.103 381.453 558.785 381.372 558.498 381.207L503.648 349.84C503.163 349.561 502.831 349.087 502.733 348.533C502.639 347.978 502.795 347.415 503.16 346.989L545.349 298.105C545.931 297.428 546.912 297.261 547.684 297.701L602.535 329.069C603.02 329.347 603.351 329.821 603.449 330.376C603.544 330.93 603.388 331.493 603.023 331.92L591.465 345.331C591.242 345.59 590.852 345.618 590.595 345.395C590.336 345.172 590.308 344.782 590.531 344.525L602.089 331.114C602.214 330.969 602.267 330.774 602.234 330.585C602.214 330.473 602.15 330.27 601.924 330.142L547.074 298.774C546.815 298.627 546.483 298.682 546.285 298.914L504.096 347.797C503.971 347.942 503.918 348.134 503.951 348.327C503.971 348.438 504.035 348.641 504.261 348.77L559.111 380.137C559.37 380.285 559.702 380.226 559.9 379.998L587.725 347.758C587.948 347.499 588.338 347.471 588.594 347.694C588.854 347.917 588.881 348.307 588.659 348.563L560.836 380.803C560.471 381.227 559.95 381.453 559.42 381.453H559.418Z" fill="black"/>
<path d="M550.093 376.746C550.032 376.757 549.977 376.768 549.922 376.779L550.093 376.746Z" fill="black"/>
<path d="M536.896 315.959L547.35 321.94L539.803 330.683L529.349 324.705L536.896 315.959Z" fill="white"/>
<path d="M539.803 331.301C539.697 331.301 539.594 331.273 539.497 331.22L529.043 325.242C528.884 325.15 528.772 324.992 528.742 324.81C528.711 324.629 528.761 324.443 528.884 324.303L536.431 315.558C536.623 315.335 536.949 315.279 537.206 315.424L547.66 321.402C547.819 321.494 547.93 321.653 547.961 321.834C547.991 322.015 547.941 322.202 547.818 322.341L540.271 331.087C540.152 331.226 539.979 331.301 539.803 331.301ZM530.305 324.543L539.669 329.897L546.394 322.104L537.03 316.751L530.305 324.543Z" fill="black"/>
<path d="M527.688 326.594L538.142 332.575L530.595 341.317L520.138 335.339L527.688 326.594Z" fill="white"/>
<path d="M530.595 341.936C530.489 341.936 530.386 341.908 530.288 341.855L519.834 335.877C519.676 335.785 519.564 335.626 519.533 335.445C519.503 335.264 519.553 335.077 519.676 334.938L527.223 326.192C527.415 325.969 527.738 325.914 527.997 326.059L538.451 332.037C538.61 332.129 538.722 332.288 538.752 332.469C538.783 332.65 538.733 332.837 538.61 332.976L531.063 341.721C530.943 341.861 530.771 341.936 530.595 341.936ZM521.097 335.175L530.461 340.529L537.186 332.736L527.822 327.382L521.097 335.175Z" fill="black"/>
<path d="M549.471 323.152L559.928 329.13L552.378 337.875L541.924 331.897L549.471 323.152Z" fill="white"/>
<path d="M552.378 338.492C552.272 338.492 552.169 338.464 552.072 338.411L541.618 332.433C541.459 332.341 541.347 332.182 541.317 332.001C541.286 331.82 541.336 331.633 541.459 331.494L549.006 322.748C549.198 322.525 549.521 322.469 549.781 322.614L560.235 328.592C560.393 328.684 560.505 328.843 560.536 329.024C560.566 329.206 560.516 329.392 560.393 329.532L552.846 338.277C552.726 338.416 552.554 338.492 552.378 338.492ZM542.88 331.733L552.244 337.087L558.969 329.295L549.605 323.941L542.88 331.733Z" fill="black"/>
<path d="M540.263 333.787L550.717 339.765L543.17 348.511L532.716 342.533L540.263 333.787Z" fill="white"/>
<path d="M543.17 349.126C543.064 349.126 542.961 349.099 542.863 349.046L532.409 343.068C532.251 342.976 532.139 342.817 532.108 342.636C532.078 342.454 532.128 342.268 532.251 342.128L539.798 333.383C539.99 333.16 540.316 333.104 540.572 333.249L551.026 339.227C551.185 339.319 551.297 339.478 551.327 339.659C551.358 339.84 551.308 340.027 551.185 340.166L543.638 348.912C543.518 349.051 543.345 349.126 543.17 349.126ZM533.672 342.365L543.036 347.719L549.761 339.927L540.397 334.573L533.672 342.365Z" fill="black"/>
<path d="M562.049 330.342L572.503 336.32L564.953 345.066L554.499 339.088L562.049 330.342Z" fill="white"/>
<path d="M564.953 345.685C564.847 345.685 564.744 345.657 564.646 345.604L554.192 339.626C554.033 339.534 553.922 339.375 553.891 339.194C553.861 339.013 553.911 338.826 554.033 338.686L561.583 329.941C561.776 329.718 562.102 329.662 562.358 329.807L572.812 335.785C572.971 335.877 573.082 336.036 573.113 336.217C573.144 336.398 573.094 336.585 572.971 336.724L565.424 345.47C565.304 345.609 565.131 345.685 564.956 345.685H564.953ZM555.455 338.923L564.819 344.277L571.544 336.485L562.183 331.131L555.455 338.923Z" fill="black"/>
<path d="M552.838 340.977L563.292 346.955L555.745 355.701L545.291 349.723L552.838 340.977Z" fill="white"/>
<path d="M555.745 356.319C555.639 356.319 555.536 356.291 555.438 356.239L544.984 350.26C544.825 350.169 544.714 350.01 544.683 349.828C544.653 349.647 544.703 349.461 544.825 349.321L552.373 340.576C552.565 340.353 552.891 340.297 553.147 340.442L563.601 346.42C563.76 346.512 563.872 346.671 563.902 346.852C563.933 347.033 563.883 347.22 563.76 347.359L556.213 356.105C556.093 356.244 555.92 356.319 555.745 356.319ZM546.247 349.561L555.611 354.915L562.336 347.122L552.972 341.769L546.247 349.561Z" fill="black"/>
<path d="M574.624 337.533L585.078 343.514L577.531 352.259L567.074 346.278L574.624 337.533Z" fill="white"/>
<path d="M577.528 352.875C577.422 352.875 577.319 352.847 577.221 352.794L566.767 346.816C566.608 346.724 566.497 346.565 566.466 346.384C566.435 346.203 566.486 346.016 566.608 345.877L574.155 337.131C574.348 336.908 574.671 336.853 574.93 336.998L585.384 342.976C585.543 343.068 585.654 343.227 585.685 343.408C585.716 343.589 585.666 343.776 585.543 343.915L577.996 352.66C577.876 352.8 577.703 352.875 577.528 352.875ZM568.03 346.117L577.391 351.47L584.116 343.678L574.752 338.324L568.027 346.117H568.03Z" fill="black"/>
<path d="M565.413 348.171L575.867 354.149L568.319 362.894L557.865 356.914L565.413 348.171Z" fill="white"/>
<path d="M568.319 363.51C568.213 363.51 568.11 363.482 568.013 363.429L557.559 357.451C557.4 357.359 557.288 357.201 557.258 357.019C557.227 356.838 557.277 356.652 557.4 356.512L564.947 347.767C565.139 347.544 565.463 347.488 565.722 347.633L576.176 353.611C576.335 353.703 576.446 353.862 576.477 354.043C576.507 354.224 576.457 354.411 576.335 354.55L568.788 363.296C568.668 363.435 568.495 363.51 568.319 363.51ZM558.821 356.752L568.186 362.106L574.91 354.313L565.546 348.959L558.821 356.752Z" fill="black"/>
<path d="M551.882 307.339C551.779 307.339 551.673 307.314 551.575 307.258C548.716 305.622 547.718 301.952 549.351 299.075C550.146 297.676 551.433 296.673 552.98 296.249C554.515 295.829 556.124 296.032 557.506 296.821C557.612 296.882 557.718 296.946 557.818 297.013C558.102 297.2 558.183 297.582 557.996 297.869C557.81 298.153 557.428 298.234 557.141 298.047C557.06 297.994 556.979 297.944 556.893 297.897C555.798 297.269 554.527 297.111 553.309 297.442C552.082 297.779 551.06 298.577 550.43 299.686C549.131 301.974 549.923 304.889 552.194 306.188C552.489 306.358 552.592 306.734 552.422 307.029C552.308 307.23 552.099 307.342 551.887 307.342L551.882 307.339Z" fill="black"/>
<path d="M558.925 311.366C558.821 311.366 558.716 311.341 558.618 311.285C555.759 309.649 554.761 305.979 556.394 303.103C557.188 301.704 558.476 300.7 560.023 300.277C561.558 299.856 563.166 300.059 564.549 300.848C564.655 300.909 564.758 300.974 564.861 301.038C565.145 301.224 565.226 301.606 565.039 301.893C564.852 302.177 564.471 302.258 564.184 302.072C564.103 302.019 564.019 301.968 563.936 301.921C562.84 301.294 561.567 301.132 560.349 301.467C559.122 301.804 558.1 302.601 557.47 303.71C556.171 305.996 556.963 308.914 559.234 310.212C559.529 310.382 559.632 310.759 559.462 311.054C559.348 311.255 559.139 311.366 558.927 311.366H558.925Z" fill="black"/>
<path d="M565.967 315.393C565.864 315.393 565.758 315.368 565.66 315.312C562.801 313.676 561.803 310.006 563.436 307.13C564.231 305.731 565.518 304.727 567.062 304.304C568.598 303.883 570.206 304.086 571.588 304.875C571.694 304.936 571.797 305 571.9 305.064C572.185 305.251 572.266 305.633 572.079 305.92C571.892 306.204 571.51 306.285 571.223 306.098C571.142 306.045 571.059 305.995 570.975 305.945C569.88 305.318 568.606 305.159 567.391 305.491C566.165 305.828 565.142 306.625 564.512 307.734C563.213 310.022 564.005 312.938 566.276 314.236C566.572 314.406 566.675 314.783 566.505 315.078C566.391 315.279 566.182 315.39 565.97 315.39L565.967 315.393Z" fill="black"/>
<path d="M573.007 319.42C572.904 319.42 572.798 319.395 572.7 319.34C569.841 317.704 568.843 314.033 570.476 311.157C571.271 309.758 572.558 308.755 574.102 308.331C575.638 307.91 577.246 308.114 578.628 308.902C578.734 308.964 578.837 309.028 578.941 309.095C579.225 309.281 579.306 309.663 579.119 309.95C578.932 310.234 578.55 310.315 578.263 310.129C578.182 310.076 578.102 310.025 578.015 309.978C576.92 309.351 575.646 309.189 574.428 309.524C573.202 309.861 572.179 310.658 571.549 311.767C570.251 314.055 571.042 316.971 573.314 318.269C573.609 318.439 573.712 318.816 573.542 319.111C573.428 319.312 573.219 319.423 573.007 319.423V319.42Z" fill="black"/>
<path d="M580.05 323.448C579.947 323.448 579.841 323.423 579.743 323.367C576.884 321.731 575.886 318.06 577.519 315.184C578.313 313.785 579.601 312.782 581.145 312.358C582.681 311.937 584.289 312.141 585.671 312.93C585.777 312.991 585.88 313.055 585.983 313.119C586.268 313.306 586.348 313.688 586.162 313.975C585.975 314.259 585.593 314.34 585.306 314.153C585.225 314.1 585.142 314.05 585.058 314C583.963 313.373 582.689 313.211 581.471 313.546C580.245 313.883 579.222 314.68 578.592 315.789C577.293 318.077 578.085 320.992 580.356 322.291C580.652 322.461 580.755 322.837 580.585 323.133C580.471 323.331 580.262 323.445 580.05 323.445V323.448Z" fill="black"/>
<path d="M587.09 327.475C586.987 327.475 586.881 327.449 586.783 327.394C583.924 325.758 582.926 322.087 584.559 319.211C585.354 317.812 586.641 316.809 588.185 316.385C589.721 315.964 591.329 316.168 592.711 316.957C592.817 317.018 592.92 317.082 593.023 317.146C593.308 317.333 593.388 317.715 593.202 318.002C593.015 318.286 592.633 318.367 592.346 318.18C592.265 318.127 592.182 318.077 592.098 318.027C591.003 317.4 589.729 317.241 588.511 317.572C587.285 317.91 586.262 318.707 585.632 319.816C584.334 322.104 585.125 325.019 587.396 326.318C587.692 326.488 587.795 326.864 587.625 327.16C587.511 327.36 587.302 327.472 587.09 327.472V327.475Z" fill="black"/>
<path d="M593.731 331.271C593.628 331.271 593.522 331.246 593.424 331.19C590.565 329.554 589.567 325.884 591.2 323.008C591.994 321.608 593.282 320.605 594.829 320.182C596.364 319.761 597.972 319.964 599.355 320.753C601.164 321.787 602.289 323.657 602.362 325.753C602.373 326.093 602.108 326.38 601.766 326.391C601.409 326.408 601.138 326.137 601.127 325.795C601.069 324.128 600.177 322.645 598.739 321.823C597.644 321.196 596.37 321.037 595.155 321.369C593.929 321.706 592.906 322.503 592.276 323.612C590.977 325.9 591.769 328.816 594.04 330.114C594.335 330.284 594.439 330.661 594.269 330.956C594.154 331.157 593.945 331.268 593.733 331.268L593.731 331.271Z" fill="black"/>
<path d="M316.951 637.646C316.951 637.646 295.606 590.861 307.852 530.211C307.852 530.211 340.933 557.93 329.008 637.646H316.954H316.951Z" fill="white"/>
<path d="M329.005 638.261H316.951C316.709 638.261 316.492 638.119 316.391 637.899C316.177 637.428 295.104 590.236 307.247 530.085C307.289 529.871 307.442 529.698 307.649 529.625C307.855 529.553 308.083 529.595 308.248 529.734C308.591 530.021 316.715 536.958 323.473 553.802C329.688 569.287 335.797 596.418 329.615 637.735C329.571 638.036 329.312 638.261 329.005 638.261ZM317.356 637.027H328.473C334.473 596.343 328.473 569.627 322.367 554.36C316.929 540.77 310.452 533.605 308.239 531.42C297.186 587.895 315.444 632.579 317.356 637.027Z" fill="black"/>
<path d="M322.171 633.384C322.171 633.384 322.149 633.384 322.138 633.384C321.798 633.365 321.536 633.075 321.556 632.735C323.189 602.822 309.703 538.976 309.566 538.335C309.496 538 309.708 537.674 310.043 537.602C310.374 537.532 310.703 537.744 310.776 538.078C310.912 538.722 324.434 602.725 322.79 632.802C322.773 633.131 322.5 633.384 322.174 633.384H322.171Z" fill="black"/>
<path d="M341.677 561.804C341.677 561.804 314.178 611.49 330.719 632.989H339.568C339.568 632.989 357.251 594.15 341.677 561.804Z" fill="white"/>
<path d="M339.567 633.607H330.719C330.526 633.607 330.345 633.518 330.228 633.368C323.236 624.282 322.96 609.405 329.403 589.15C334.175 574.156 341.064 561.634 341.134 561.509C341.245 561.308 341.457 561.182 341.691 561.191C341.922 561.196 342.129 561.333 342.229 561.539C357.75 593.773 340.303 632.858 340.125 633.248C340.024 633.468 339.804 633.61 339.562 633.61L339.567 633.607ZM331.025 632.373H339.163C340.855 628.418 355.236 593.021 341.641 563.184C337.806 570.508 316.617 613.059 331.025 632.373Z" fill="black"/>
<path d="M334.849 634.923C334.52 634.923 334.244 634.661 334.233 634.329C333.436 613.817 340.334 569.192 340.403 568.744C340.456 568.406 340.771 568.178 341.109 568.228C341.446 568.281 341.677 568.596 341.624 568.933C341.554 569.379 334.676 613.89 335.468 634.282C335.482 634.622 335.217 634.909 334.874 634.923C334.866 634.923 334.857 634.923 334.849 634.923Z" fill="black"/>
<path d="M285.921 580.105C285.921 580.105 309.348 588.098 317.829 635.418H308.615C308.615 635.418 289.385 609.429 285.921 580.105Z" fill="white"/>
<path d="M317.829 636.034H308.616C308.421 636.034 308.237 635.942 308.12 635.783C307.927 635.521 288.753 609.327 285.308 580.178C285.283 579.966 285.37 579.76 285.534 579.626C285.698 579.492 285.921 579.453 286.122 579.523C286.367 579.606 292.214 581.666 299.162 589.612C305.525 596.891 314.034 610.726 318.44 635.31C318.473 635.491 318.423 635.675 318.306 635.814C318.189 635.953 318.016 636.034 317.832 636.034H317.829ZM308.931 634.799H317.091C309.661 594.447 291.077 583.229 286.668 581.103C290.208 607.981 306.994 632.093 308.931 634.799Z" fill="black"/>
<path d="M312.793 634.7C312.495 634.7 312.236 634.485 312.186 634.184C308.699 613.109 293.611 591.889 293.457 591.677C293.259 591.401 293.321 591.014 293.599 590.816C293.878 590.618 294.263 590.679 294.461 590.958C294.614 591.173 309.87 612.63 313.404 633.983C313.459 634.321 313.231 634.638 312.896 634.694C312.863 634.7 312.83 634.702 312.796 634.702L312.793 634.7Z" fill="black"/>
<path d="M294.959 631.661H352.756L354.052 658.999C354.369 665.702 349.021 671.309 342.31 671.309H309.301C301.361 671.309 294.929 664.868 294.934 656.928L294.957 631.659L294.959 631.661Z" fill="black"/>
<path d="M425.337 200.338H410.195V370.706H425.337V200.338Z" fill="white"/>
<path d="M410.195 371.322C409.855 371.322 409.579 371.046 409.579 370.706V200.339C409.579 199.999 409.855 199.723 410.195 199.723C410.535 199.723 410.811 199.999 410.811 200.339V370.706C410.811 371.046 410.535 371.322 410.195 371.322Z" fill="black"/>
<path d="M425.337 371.322C424.997 371.322 424.721 371.046 424.721 370.706V200.339C424.721 199.999 424.997 199.723 425.337 199.723C425.677 199.723 425.953 199.999 425.953 200.339V370.706C425.953 371.046 425.677 371.322 425.337 371.322Z" fill="black"/>
<path d="M472.345 247.949L532.789 265.529L575.688 217.816L472.345 247.949Z" fill="white"/>
<path d="M532.789 266.145C532.73 266.145 532.674 266.136 532.616 266.12L472.172 248.539C471.907 248.464 471.726 248.222 471.726 247.946C471.726 247.67 471.907 247.43 472.172 247.352L575.516 217.219C575.78 217.141 576.065 217.25 576.21 217.484C576.357 217.718 576.329 218.019 576.145 218.225L533.246 265.936C533.126 266.067 532.959 266.139 532.786 266.139L532.789 266.145ZM474.552 247.949L532.588 264.826L573.779 219.014L474.552 247.946V247.949Z" fill="black"/>
<path d="M502.461 276.314L494.024 254.255L560.82 226.093L504.648 257.343L517.284 261.019L502.461 276.314Z" fill="white"/>
<path d="M502.461 276.93C502.419 276.93 502.377 276.927 502.338 276.916C502.132 276.874 501.962 276.729 501.887 276.531L493.45 254.472C493.331 254.16 493.481 253.812 493.788 253.684L560.583 225.521C560.887 225.393 561.235 225.524 561.377 225.819C561.522 226.115 561.408 226.469 561.124 226.63L506.245 257.162L517.46 260.423C517.669 260.484 517.828 260.648 517.884 260.857C517.939 261.066 517.881 261.289 517.73 261.445L502.907 276.74C502.79 276.86 502.628 276.927 502.463 276.927L502.461 276.93ZM494.816 254.589L502.692 275.188L516.128 261.325L504.478 257.937C504.239 257.867 504.066 257.661 504.038 257.413C504.01 257.165 504.133 256.925 504.35 256.805L550.608 231.07L494.816 254.592V254.589Z" fill="black"/>
<path d="M503.23 270.268C503.205 270.268 503.182 270.268 503.157 270.266C502.82 270.227 502.575 269.92 502.614 269.583L504.035 257.276C504.074 256.936 504.381 256.696 504.718 256.732C505.055 256.771 505.3 257.078 505.261 257.415L503.84 269.722C503.804 270.037 503.536 270.268 503.227 270.268H503.23Z" fill="black"/>
<path d="M378.752 674.026C374.614 674.026 370.428 673.912 366.311 673.689C365.971 673.669 365.709 673.379 365.729 673.039C365.748 672.699 366.041 672.44 366.378 672.457C370.472 672.68 374.636 672.794 378.752 672.794C400.036 672.794 421.092 669.806 441.331 663.915C441.657 663.82 442 664.007 442.095 664.336C442.189 664.662 442.003 665.004 441.674 665.102C421.32 671.027 400.151 674.029 378.75 674.029L378.752 674.026Z" fill="black"/>
<path d="M507.176 633.609C506.981 633.609 506.788 633.517 506.669 633.347C506.474 633.069 506.54 632.684 506.819 632.489C512.884 628.242 518.806 623.637 524.424 618.808C524.684 618.585 525.074 618.615 525.294 618.872C525.514 619.128 525.486 619.521 525.227 619.741C519.581 624.599 513.625 629.228 507.527 633.498C507.418 633.573 507.296 633.609 507.173 633.609H507.176Z" fill="black"/>
<path d="M307.283 237.391C307.024 237.391 306.784 237.23 306.698 236.97C306.589 236.647 306.762 236.296 307.085 236.187C330.114 228.445 354.227 224.521 378.749 224.521C382.782 224.521 386.862 224.63 390.875 224.841C391.215 224.858 391.477 225.151 391.458 225.491C391.441 225.831 391.149 226.093 390.809 226.073C386.818 225.862 382.76 225.753 378.747 225.753C354.355 225.753 330.376 229.657 307.475 237.355C307.411 237.377 307.344 237.388 307.277 237.388L307.283 237.391Z" fill="black"/>
<path d="M288.714 244.573C288.477 244.573 288.251 244.437 288.148 244.205C288.012 243.893 288.154 243.528 288.466 243.392C291.063 242.252 293.719 241.145 296.356 240.106C296.673 239.98 297.03 240.136 297.156 240.454C297.281 240.772 297.125 241.129 296.807 241.254C294.185 242.288 291.545 243.386 288.962 244.523C288.881 244.559 288.797 244.576 288.714 244.576V244.573Z" fill="black"/>
<path d="M161.731 393.657C161.681 393.657 161.628 393.651 161.578 393.637C161.249 393.551 161.048 393.216 161.135 392.885C165.622 375.522 172.213 358.697 180.73 342.878C180.892 342.577 181.265 342.466 181.566 342.627C181.867 342.789 181.979 343.162 181.817 343.463C173.347 359.196 166.79 375.926 162.33 393.194C162.258 393.473 162.007 393.657 161.734 393.657H161.731Z" fill="black"/>
<path d="M178.171 550.017C177.946 550.017 177.725 549.891 177.62 549.677C161.946 518.34 154 484.562 154 449.273C154 433.17 155.711 417.098 159.086 401.502C159.159 401.167 159.488 400.958 159.819 401.028C160.154 401.1 160.365 401.429 160.293 401.761C156.935 417.27 155.235 433.257 155.235 449.27C155.235 484.367 163.136 517.961 178.723 549.122C178.876 549.426 178.751 549.797 178.447 549.95C178.358 549.994 178.263 550.014 178.171 550.014V550.017Z" fill="black"/>
<path d="M200.016 352.003C199.907 352.003 199.799 351.975 199.698 351.913C199.406 351.738 199.311 351.359 199.486 351.066C207.17 338.296 216.295 326.343 226.609 315.538C226.843 315.29 227.236 315.282 227.482 315.518C227.727 315.755 227.738 316.146 227.501 316.391C217.248 327.129 208.179 339.01 200.543 351.702C200.426 351.894 200.222 352 200.013 352L200.016 352.003Z" fill="black"/>
<path d="M189.141 538.821C188.907 538.821 188.681 538.688 188.578 538.459C176.697 512.217 170.672 484.189 170.672 455.151C170.672 422.535 178.199 391.399 193.045 362.61C193.201 362.306 193.572 362.189 193.876 362.345C194.18 362.501 194.297 362.874 194.141 363.175C179.386 391.789 171.906 422.736 171.906 455.154C171.906 484.016 177.893 511.871 189.701 537.952C189.84 538.261 189.701 538.629 189.394 538.769C189.311 538.805 189.224 538.824 189.141 538.824V538.821Z" fill="black"/>
<path d="M494.799 635.298C494.646 635.298 494.493 635.243 494.373 635.126C494.128 634.889 494.119 634.499 494.353 634.253L496.625 631.882C496.862 631.636 497.252 631.628 497.497 631.862C497.742 632.099 497.751 632.489 497.517 632.734L495.245 635.106C495.126 635.231 494.961 635.296 494.799 635.296V635.298Z" fill="black"/>
<path d="M486.851 643.598C486.697 643.598 486.544 643.542 486.424 643.425C486.179 643.189 486.171 642.798 486.405 642.553L488.676 640.181C488.913 639.936 489.303 639.928 489.548 640.162C489.794 640.399 489.802 640.789 489.568 641.034L487.297 643.406C487.177 643.531 487.012 643.595 486.851 643.595V643.598Z" fill="black"/>
<path d="M489.077 635.427C488.921 635.427 488.765 635.368 488.645 635.248L486.341 632.98C486.098 632.74 486.095 632.35 486.335 632.107C486.575 631.865 486.965 631.862 487.207 632.102L489.512 634.37C489.755 634.61 489.757 635 489.518 635.243C489.398 635.365 489.236 635.427 489.077 635.427Z" fill="black"/>
<path d="M497.148 643.367C496.992 643.367 496.836 643.308 496.716 643.188L494.412 640.92C494.169 640.68 494.166 640.29 494.406 640.047C494.646 639.805 495.036 639.802 495.278 640.042L497.583 642.31C497.826 642.55 497.828 642.94 497.589 643.183C497.469 643.305 497.307 643.367 497.148 643.367Z" fill="black"/>
<path d="M590.531 407.054C590.378 407.054 590.225 406.998 590.105 406.881C589.859 406.644 589.851 406.254 590.085 406.009L592.357 403.637C592.593 403.392 592.984 403.383 593.229 403.617C593.474 403.854 593.482 404.244 593.248 404.49L590.977 406.861C590.857 406.987 590.693 407.051 590.531 407.051V407.054Z" fill="black"/>
<path d="M582.583 415.351C582.43 415.351 582.277 415.295 582.157 415.178C581.911 414.941 581.903 414.551 582.137 414.306L584.409 411.934C584.645 411.689 585.036 411.68 585.281 411.914C585.526 412.151 585.535 412.541 585.3 412.787L583.029 415.158C582.909 415.284 582.745 415.348 582.583 415.348V415.351Z" fill="black"/>
<path d="M584.81 407.179C584.654 407.179 584.498 407.121 584.378 407.001L582.073 404.732C581.831 404.493 581.828 404.102 582.067 403.86C582.307 403.617 582.697 403.615 582.94 403.854L585.245 406.123C585.487 406.363 585.49 406.753 585.25 406.995C585.13 407.118 584.969 407.179 584.81 407.179Z" fill="black"/>
<path d="M592.881 415.122C592.725 415.122 592.569 415.063 592.449 414.944L590.144 412.675C589.902 412.435 589.899 412.045 590.138 411.803C590.378 411.56 590.768 411.557 591.011 411.797L593.316 414.066C593.558 414.305 593.561 414.696 593.321 414.938C593.201 415.061 593.04 415.122 592.881 415.122Z" fill="black"/>
<path d="M341.558 380.572C341.388 380.572 341.218 380.502 341.095 380.363C339.431 378.49 338.25 376.213 337.581 373.596C337.497 373.264 337.695 372.93 338.027 372.846C338.358 372.763 338.693 372.961 338.776 373.292C339.395 375.717 340.487 377.821 342.017 379.546C342.243 379.8 342.221 380.19 341.965 380.418C341.847 380.522 341.7 380.575 341.555 380.575L341.558 380.572ZM337.595 366.709C337.595 366.709 337.567 366.709 337.556 366.709C337.216 366.687 336.956 366.394 336.979 366.054C337.126 363.738 337.542 361.247 338.216 358.641C338.302 358.312 338.637 358.112 338.969 358.198C339.297 358.284 339.498 358.622 339.412 358.95C338.757 361.478 338.353 363.895 338.21 366.132C338.191 366.459 337.918 366.709 337.595 366.709ZM341.148 352.384C341.073 352.384 340.995 352.37 340.917 352.34C340.602 352.212 340.448 351.852 340.574 351.537C341.48 349.282 342.539 347.003 343.72 344.762C343.879 344.461 344.253 344.344 344.554 344.503C344.855 344.662 344.972 345.035 344.813 345.336C343.651 347.541 342.608 349.781 341.719 351.997C341.622 352.237 341.39 352.384 341.145 352.384H341.148ZM348.048 339.294C347.931 339.294 347.812 339.26 347.706 339.191C347.421 339.001 347.346 338.619 347.536 338.335C348.673 336.63 349.81 335.105 350.911 333.798C351.309 333.324 351.711 332.862 352.12 332.41C352.349 332.157 352.739 332.137 352.993 332.366C353.246 332.594 353.266 332.984 353.037 333.238C352.639 333.681 352.243 334.135 351.853 334.595C350.782 335.866 349.673 337.357 348.561 339.024C348.441 339.202 348.246 339.297 348.048 339.297V339.294ZM357.886 328.288C357.711 328.288 357.538 328.213 357.415 328.071C357.195 327.812 357.229 327.421 357.488 327.201C359.372 325.607 361.398 324.113 363.511 322.759C363.798 322.575 364.179 322.659 364.363 322.946C364.547 323.233 364.464 323.614 364.177 323.798C362.109 325.122 360.127 326.585 358.285 328.143C358.168 328.241 358.029 328.288 357.886 328.288ZM370.308 320.301C370.077 320.301 369.857 320.173 369.751 319.95C369.603 319.643 369.734 319.272 370.04 319.127C372.22 318.082 374.541 317.124 376.938 316.276C377.259 316.162 377.613 316.332 377.727 316.653C377.841 316.973 377.671 317.327 377.351 317.441C374.996 318.275 372.716 319.217 370.576 320.242C370.489 320.284 370.4 320.304 370.308 320.304V320.301ZM384.229 315.34C383.953 315.34 383.702 315.153 383.63 314.875C383.546 314.543 383.747 314.208 384.076 314.125C386.389 313.537 388.839 313.013 391.358 312.567C391.692 312.508 392.013 312.731 392.074 313.069C392.133 313.403 391.91 313.723 391.573 313.785C389.084 314.225 386.662 314.741 384.379 315.323C384.329 315.337 384.276 315.343 384.226 315.343L384.229 315.34ZM398.794 312.729C398.484 312.729 398.217 312.497 398.181 312.182C398.142 311.842 398.384 311.538 398.721 311.497C401.062 311.226 403.554 310.995 406.126 310.817C406.466 310.792 406.762 311.048 406.784 311.391C406.809 311.731 406.553 312.026 406.213 312.049C403.657 312.227 401.185 312.453 398.863 312.723C398.838 312.723 398.816 312.726 398.791 312.726L398.794 312.729ZM450.606 311.895H450.601C447.825 311.87 445.177 311.798 443.182 311.739C442.842 311.728 442.574 311.444 442.583 311.104C442.594 310.764 442.87 310.502 443.218 310.505C445.208 310.563 447.844 310.636 450.612 310.661C450.952 310.663 451.228 310.942 451.222 311.285C451.219 311.625 450.943 311.895 450.606 311.895ZM458.014 311.831C457.682 311.831 457.406 311.566 457.398 311.232C457.387 310.892 457.657 310.608 457.997 310.597C460.637 310.518 463.047 310.382 465.363 310.176C465.706 310.145 466.001 310.396 466.032 310.736C466.063 311.076 465.812 311.374 465.472 311.405C463.134 311.611 460.701 311.75 458.036 311.828C458.031 311.828 458.025 311.828 458.017 311.828L458.014 311.831ZM413.573 311.667C413.241 311.667 412.968 311.405 412.957 311.07C412.946 310.73 413.211 310.443 413.551 310.432C415.842 310.351 418.269 310.293 420.972 310.256H420.981C421.318 310.256 421.594 310.527 421.597 310.867C421.602 311.207 421.329 311.488 420.986 311.491C418.294 311.527 415.875 311.583 413.592 311.667C413.584 311.667 413.579 311.667 413.57 311.667H413.573ZM435.796 311.513C435.796 311.513 435.785 311.513 435.78 311.513C433.857 311.463 432.343 311.438 431.014 311.438L430.897 310.822V311.438L428.391 311.441C428.051 311.441 427.775 311.165 427.775 310.825C427.775 310.485 428.051 310.206 428.391 310.206H430.9L431.017 310.204C432.354 310.204 433.879 310.226 435.813 310.279C436.153 310.287 436.423 310.571 436.415 310.911C436.407 311.246 436.131 311.513 435.799 311.513H435.796ZM472.763 310.463C472.467 310.463 472.208 310.251 472.155 309.953C472.097 309.618 472.32 309.298 472.657 309.239C475.215 308.791 477.612 308.222 479.786 307.55C480.112 307.45 480.457 307.631 480.558 307.957C480.658 308.283 480.477 308.629 480.151 308.729C477.927 309.418 475.48 309.997 472.871 310.454C472.835 310.46 472.799 310.463 472.763 310.463ZM486.815 305.962C486.594 305.962 486.38 305.842 486.268 305.633C486.109 305.332 486.224 304.958 486.525 304.8C488.771 303.61 490.75 302.208 492.411 300.636C492.659 300.402 493.049 300.413 493.283 300.661C493.517 300.909 493.506 301.299 493.258 301.533C491.516 303.18 489.445 304.649 487.102 305.892C487.01 305.942 486.909 305.965 486.812 305.965L486.815 305.962ZM497.291 295.842C497.193 295.842 497.096 295.82 497.004 295.77C496.703 295.611 496.586 295.238 496.747 294.937C497.826 292.894 498.612 290.608 499.083 288.145C499.147 287.81 499.47 287.59 499.805 287.654C500.139 287.718 500.359 288.042 500.295 288.376C499.799 290.96 498.974 293.359 497.84 295.511C497.728 295.72 497.517 295.839 497.294 295.839L497.291 295.842Z" fill="black"/>
</g>
<path d="M337.808 744.976V775.6H353.888V780.016H332.288V744.976H337.808ZM360.72 758.08C362.928 755.744 365.84 754.576 369.456 754.576C373.072 754.576 375.968 755.744 378.144 758.08C380.352 760.416 381.456 763.568 381.456 767.536C381.456 771.504 380.352 774.656 378.144 776.992C375.968 779.328 373.072 780.496 369.456 780.496C365.84 780.496 362.928 779.328 360.72 776.992C358.544 774.656 357.456 771.504 357.456 767.536C357.456 763.568 358.544 760.416 360.72 758.08ZM364.272 774.256C365.552 775.856 367.28 776.656 369.456 776.656C371.632 776.656 373.36 775.856 374.64 774.256C375.92 772.656 376.56 770.416 376.56 767.536C376.56 764.656 375.92 762.416 374.64 760.816C373.36 759.216 371.632 758.416 369.456 758.416C367.28 758.416 365.552 759.216 364.272 760.816C362.992 762.416 362.352 764.656 362.352 767.536C362.352 770.416 362.992 772.656 364.272 774.256ZM403.018 754.576V758.608C399.498 758.608 396.714 759.568 394.666 761.488C392.618 763.376 391.594 765.872 391.594 768.976V780.016H386.698V755.056H391.354L391.45 759.856H391.546C394.49 756.336 398.314 754.576 403.018 754.576ZM409.204 744.016H414.004V758.416H414.1C415.956 755.856 418.484 754.576 421.684 754.576C424.852 754.576 427.316 755.68 429.076 757.888C430.868 760.064 431.764 763.28 431.764 767.536C431.764 771.728 430.836 774.944 428.98 777.184C427.156 779.392 424.724 780.496 421.684 780.496C418.356 780.496 415.78 779.136 413.956 776.416H413.86L413.764 780.016H409.204V744.016ZM427.06 767.536C427.06 764.496 426.484 762.224 425.332 760.72C424.18 759.184 422.564 758.416 420.484 758.416C418.596 758.416 417.044 759.216 415.828 760.816C414.612 762.384 414.004 764.544 414.004 767.296V767.776C414.004 770.56 414.612 772.736 415.828 774.304C417.044 775.872 418.596 776.656 420.484 776.656C422.468 776.656 424.052 775.872 425.236 774.304C426.452 772.736 427.06 770.48 427.06 767.536ZM445.803 774.256H445.899L453.003 755.056H458.091L443.691 790.576H438.603L443.211 780.016L434.091 755.056H439.371L445.803 774.256Z" fill="#212121"/>
<path d="M246.104 816.576V818.48H239.776V837.016H237.536V818.48H231.18V816.576H246.104ZM252.021 835.56C252.712 835.672 253.468 835.728 254.289 835.728C257.406 835.728 258.965 834.71 258.965 832.676C258.965 830.828 257.313 829.904 254.009 829.904H252.021V835.56ZM252.021 828.504H253.981C255.325 828.504 256.37 828.28 257.117 827.832C257.864 827.384 258.237 826.768 258.237 825.984C258.237 824.49 256.865 823.744 254.121 823.744C253.393 823.744 252.693 823.8 252.021 823.912V828.504ZM261.037 832.816C261.037 835.746 258.76 837.212 254.205 837.212C252.544 837.212 251.106 837.109 249.893 836.904V822.568C251.218 822.362 252.581 822.26 253.981 822.26C256.24 822.26 257.845 822.596 258.797 823.268C259.768 823.921 260.253 824.761 260.253 825.788C260.253 826.628 259.964 827.337 259.385 827.916C258.806 828.476 257.994 828.868 256.949 829.092V829.12C258.274 829.325 259.282 829.754 259.973 830.408C260.682 831.042 261.037 831.845 261.037 832.816ZM273.737 825.424C272.897 824.378 271.74 823.856 270.265 823.856C268.79 823.856 267.624 824.378 266.765 825.424C265.925 826.45 265.505 827.888 265.505 829.736C265.505 831.584 265.925 833.03 266.765 834.076C267.624 835.102 268.79 835.616 270.265 835.616C271.74 835.616 272.897 835.102 273.737 834.076C274.596 833.03 275.025 831.584 275.025 829.736C275.025 827.888 274.596 826.45 273.737 825.424ZM275.249 835.252C273.998 836.614 272.337 837.296 270.265 837.296C268.193 837.296 266.532 836.614 265.281 835.252C264.03 833.889 263.405 832.05 263.405 829.736C263.405 827.421 264.03 825.582 265.281 824.22C266.532 822.857 268.193 822.176 270.265 822.176C272.337 822.176 273.998 822.857 275.249 824.22C276.5 825.582 277.125 827.421 277.125 829.736C277.125 832.05 276.5 833.889 275.249 835.252ZM282.482 834.16H282.538L290.826 822.456H293.122V837.016H290.994V825.312H290.966L282.65 837.016H280.354V822.456H282.482V834.16ZM284.358 818.172C285.011 818.657 285.805 818.9 286.738 818.9C287.671 818.9 288.465 818.657 289.118 818.172C289.771 817.668 290.117 817.07 290.154 816.38H291.918C291.918 817.518 291.423 818.489 290.434 819.292C289.463 820.094 288.231 820.496 286.738 820.496C285.245 820.496 284.003 820.094 283.014 819.292C282.043 818.489 281.558 817.518 281.558 816.38H283.35C283.387 817.07 283.723 817.668 284.358 818.172ZM307.807 829.624V822.456H318.587V837.016H316.515V824.192H309.823V829.96C309.823 832.741 309.422 834.626 308.619 835.616C307.817 836.605 306.286 837.165 304.027 837.296L303.915 835.56C304.998 835.504 305.791 835.326 306.295 835.028C306.818 834.729 307.201 834.178 307.443 833.376C307.686 832.554 307.807 831.304 307.807 829.624ZM324.919 834.16H324.975L333.263 822.456H335.559V837.016H333.431V825.312H333.403L325.087 837.016H322.791V822.456H324.919V834.16ZM349.292 822.456H351.336V837.016H349.292V832.116C348.041 832.713 346.576 833.012 344.896 833.012C342.88 833.012 341.471 832.657 340.668 831.948C339.884 831.22 339.492 829.95 339.492 828.14V822.456H341.508V827.748C341.508 829.148 341.76 830.09 342.264 830.576C342.787 831.042 343.776 831.276 345.232 831.276C346.819 831.276 348.172 830.986 349.292 830.408V822.456ZM357.733 830.016V837.016H355.549V822.456H357.733V828.392H365.993V822.456H368.177V837.016H365.993V830.016H357.733ZM386.086 837.016V822.456H388.102V837.016H386.086ZM372.366 822.456H374.41V826.936C375.212 826.786 376.071 826.712 376.986 826.712C379.188 826.712 380.859 827.169 381.998 828.084C383.136 828.98 383.706 830.23 383.706 831.836C383.706 835.476 381.372 837.296 376.706 837.296C375.156 837.296 373.71 837.156 372.366 836.876V822.456ZM374.41 828.616V835.364C375.156 835.532 375.968 835.616 376.846 835.616C380.075 835.616 381.69 834.356 381.69 831.836C381.69 829.54 380.028 828.392 376.706 828.392C375.884 828.392 375.119 828.466 374.41 828.616ZM394.427 834.16H394.483L402.771 822.456H405.067V837.016H402.939V825.312H402.911L394.595 837.016H392.299V822.456H394.427V834.16ZM396.303 818.172C396.957 818.657 397.75 818.9 398.683 818.9C399.617 818.9 400.41 818.657 401.063 818.172C401.717 817.668 402.062 817.07 402.099 816.38H403.863C403.863 817.518 403.369 818.489 402.379 819.292C401.409 820.094 400.177 820.496 398.683 820.496C397.19 820.496 395.949 820.094 394.959 819.292C393.989 818.489 393.503 817.518 393.503 816.38H395.295C395.333 817.07 395.669 817.668 396.303 818.172ZM424.205 837.296C422.095 837.296 420.527 836.446 419.501 834.748H419.445V843.176H417.401V822.456H419.361L419.389 824.92H419.445C420.471 823.09 422.058 822.176 424.205 822.176C426.034 822.176 427.471 822.829 428.517 824.136C429.562 825.424 430.085 827.29 430.085 829.736C430.085 832.125 429.543 833.982 428.461 835.308C427.397 836.633 425.978 837.296 424.205 837.296ZM428.069 829.736C428.069 827.832 427.686 826.376 426.921 825.368C426.174 824.36 425.119 823.856 423.757 823.856C422.469 823.856 421.423 824.36 420.621 825.368C419.837 826.376 419.445 827.766 419.445 829.54V829.932C419.445 831.742 419.846 833.142 420.649 834.132C421.451 835.121 422.487 835.616 423.757 835.616C425.082 835.616 426.127 835.112 426.893 834.104C427.677 833.077 428.069 831.621 428.069 829.736ZM434.572 828.896H443.532C443.513 827.272 443.121 826.021 442.356 825.144C441.59 824.266 440.536 823.828 439.192 823.828C437.792 823.828 436.681 824.276 435.86 825.172C435.057 826.049 434.628 827.29 434.572 828.896ZM434.572 830.52C434.609 832.106 435.094 833.357 436.028 834.272C436.961 835.186 438.174 835.644 439.668 835.644C441.105 835.644 442.533 835.27 443.952 834.524L444.512 836.12C442.944 836.904 441.264 837.296 439.472 837.296C437.381 837.296 435.692 836.614 434.404 835.252C433.116 833.889 432.472 832.05 432.472 829.736C432.472 827.384 433.069 825.536 434.264 824.192C435.477 822.848 437.12 822.176 439.192 822.176C441.208 822.176 442.766 822.82 443.868 824.108C444.988 825.377 445.548 827.206 445.548 829.596C445.548 829.838 445.529 830.146 445.492 830.52H434.572ZM448.901 822.456H461.221V837.016H459.177V824.192H450.945V837.016H448.901V822.456ZM466.536 828.896H475.496C475.478 827.272 475.086 826.021 474.32 825.144C473.555 824.266 472.5 823.828 471.156 823.828C469.756 823.828 468.646 824.276 467.824 825.172C467.022 826.049 466.592 827.29 466.536 828.896ZM466.536 830.52C466.574 832.106 467.059 833.357 467.992 834.272C468.926 835.186 470.139 835.644 471.632 835.644C473.07 835.644 474.498 835.27 475.916 834.524L476.476 836.12C474.908 836.904 473.228 837.296 471.436 837.296C469.346 837.296 467.656 836.614 466.368 835.252C465.08 833.889 464.436 832.05 464.436 829.736C464.436 827.384 465.034 825.536 466.228 824.192C467.442 822.848 469.084 822.176 471.156 822.176C473.172 822.176 474.731 822.82 475.832 824.108C476.952 825.377 477.512 827.206 477.512 829.596C477.512 829.838 477.494 830.146 477.456 830.52H466.536ZM492.878 824.164H487.558V837.016H485.346V824.164H480.026V822.456H492.878V824.164ZM498.361 834.16H498.417L506.705 822.456H509.001V837.016H506.873V825.312H506.845L498.529 837.016H496.233V822.456H498.361V834.16ZM525.225 824.164H519.905V837.016H517.693V824.164H512.373V822.456H525.225V824.164ZM537.932 825.424C537.092 824.378 535.935 823.856 534.46 823.856C532.986 823.856 531.819 824.378 530.96 825.424C530.12 826.45 529.7 827.888 529.7 829.736C529.7 831.584 530.12 833.03 530.96 834.076C531.819 835.102 532.986 835.616 534.46 835.616C535.935 835.616 537.092 835.102 537.932 834.076C538.791 833.03 539.22 831.584 539.22 829.736C539.22 827.888 538.791 826.45 537.932 825.424ZM539.444 835.252C538.194 836.614 536.532 837.296 534.46 837.296C532.388 837.296 530.727 836.614 529.476 835.252C528.226 833.889 527.6 832.05 527.6 829.736C527.6 827.421 528.226 825.582 529.476 824.22C530.727 822.857 532.388 822.176 534.46 822.176C536.532 822.176 538.194 822.857 539.444 824.22C540.695 825.582 541.32 827.421 541.32 829.736C541.32 832.05 540.695 833.889 539.444 835.252ZM551.353 837.296C549.244 837.296 547.676 836.446 546.649 834.748H546.593V843.176H544.549V822.456H546.509L546.537 824.92H546.593C547.62 823.09 549.207 822.176 551.353 822.176C553.183 822.176 554.62 822.829 555.665 824.136C556.711 825.424 557.233 827.29 557.233 829.736C557.233 832.125 556.692 833.982 555.609 835.308C554.545 836.633 553.127 837.296 551.353 837.296ZM555.217 829.736C555.217 827.832 554.835 826.376 554.069 825.368C553.323 824.36 552.268 823.856 550.905 823.856C549.617 823.856 548.572 824.36 547.769 825.368C546.985 826.376 546.593 827.766 546.593 829.54V829.932C546.593 831.742 546.995 833.142 547.797 834.132C548.6 835.121 549.636 835.616 550.905 835.616C552.231 835.616 553.276 835.112 554.041 834.104C554.825 833.077 555.217 831.621 555.217 829.736Z" fill="#212121"/>
<defs>
<clipPath id="clip0_42_7423">
<rect width="480" height="510.016" fill="white" transform="translate(154 176)"/>
</clipPath>
</defs>
</svg>
